<?xml version="1.0" encoding="utf-8"?>
<!-- Generator: Adobe Illustrator 17.0.0, SVG Export Plug-In . SVG Version: 6.00 Build 0)  -->
<!DOCTYPE svg PUBLIC "-//W3C//DTD SVG 1.1//EN" "http://www.w3.org/Graphics/SVG/1.1/DTD/svg11.dtd">
<svg version="1.1" id="Capa_1" xmlns="http://www.w3.org/2000/svg" xmlns:xlink="http://www.w3.org/1999/xlink" x="0px" y="0px"
	 width="80px" height="65px" viewBox="0 0 80 65" enable-background="new 0 0 80 65" xml:space="preserve">
<g>
	<path fill="#FFFFFF" d="M71.184,1.832c-1.647-0.601-3.499-0.891-5.259-0.899C51.661,0.864,37.397,0.879,23.134,0.921
		c-1.633,0.005-3.294,0.191-4.892,0.532C7.265,3.793,1.191,15.164,5.668,25.194c3.156,7.07,9.056,10.296,16.546,10.611
		c5.576,0.235,11.169,0.056,16.756,0.055c0.336,0,0.672-0.06,0.995-0.09c0.076-0.214,0.166-0.35,0.166-0.485
		c0.013-7.032,0.01-14.064,0.034-21.096c0.003-0.813-0.36-1.011-1.092-1.006c-3.291,0.021-6.583,0.033-9.874-0.007
		c-0.937-0.011-1.195,0.363-1.184,1.241c0.035,2.992,0.017,5.984,0.009,8.977c-0.001,0.534-0.05,1.066-0.096,1.969
		c-2.269-0.285-4.439-0.303-6.454-0.871c-2.998-0.843-4.448-3.119-4.436-6.174c0.011-2.968,1.485-5.106,4.397-6.071
		c1.162-0.385,2.436-0.601,3.661-0.605c13.067-0.044,26.134-0.031,39.2-0.018c0.574,0.001,1.425-0.303,1.42,0.781
		c-0.005,1.081-0.854,0.769-1.428,0.771c-4.737,0.021-9.476-0.004-14.214,0.019c-5.134,0.025-7.969,2.842-8.003,7.966
		c-0.029,4.438-0.009,8.877,0,13.316c0.001,0.425,0.079,0.85,0.121,1.276h1.071l-0.071,0.102h11.194v-11.69
		c0.36-1.758,2.095-1.242,2.095-1.242h11.97l0.006,0.002c0.64-0.169,1.044-0.276,1.444-0.38c4.738-1.233,7.962-5.015,8.25-9.675
		C78.464,7.773,75.911,3.557,71.184,1.832"/>
	<path fill="#FFFFFF" d="M17.257,63.865H1.824v-3.042c0-0.797,0.083-1.513,0.248-2.144c0.167-0.631,0.458-1.217,0.873-1.758
		c0.416-0.54,0.968-1.064,1.658-1.57c0.69-0.508,1.559-1.035,2.605-1.584l3.965-2.068c0.433-0.216,0.739-0.429,0.923-0.637
		c0.183-0.208,0.275-0.469,0.275-0.785c0-0.465-0.159-0.78-0.474-0.947c-0.316-0.167-0.74-0.25-1.272-0.25H2.223v-3.914h8.826
		c2.227,0,3.856,0.402,4.886,1.209c1.031,0.807,1.546,1.908,1.546,3.304c0,0.781-0.116,1.454-0.35,2.02
		c-0.232,0.564-0.577,1.072-1.034,1.521c-0.457,0.448-1.018,0.877-1.683,1.284c-0.664,0.407-1.429,0.843-2.293,1.308l-3.615,1.97
		c-0.566,0.299-0.927,0.573-1.085,0.823c-0.157,0.249-0.236,0.532-0.236,0.847v0.499h10.072V63.865z"/>
	<path fill="#FFFFFF" d="M37.374,59.177c-0.341,1.031-0.856,1.911-1.545,2.643c-0.69,0.731-1.558,1.296-2.605,1.695
		c-1.047,0.398-2.269,0.599-3.665,0.599h-1.895c-1.395,0-2.618-0.204-3.665-0.611c-1.046-0.406-1.915-0.976-2.604-1.708
		c-0.69-0.731-1.206-1.616-1.546-2.656c-0.341-1.038-0.512-2.181-0.512-3.428v-2.592c0-1.23,0.171-2.353,0.512-3.366
		c0.34-1.014,0.856-1.878,1.546-2.593c0.689-0.714,1.558-1.266,2.604-1.657c1.048-0.391,2.27-0.587,3.665-0.587h1.895
		c1.395,0,2.618,0.2,3.665,0.599c1.047,0.399,1.916,0.956,2.605,1.671c0.69,0.714,1.205,1.583,1.545,2.605
		c0.342,1.023,0.512,2.149,0.512,3.379v2.593C37.885,57.008,37.715,58.147,37.374,59.177 M25.357,59.264
		c0.524,0.54,1.409,0.81,2.655,0.81h1.197c1.246,0,2.131-0.27,2.655-0.81c0.524-0.54,0.786-1.459,0.786-2.755V52.47
		c0-1.296-0.262-2.21-0.786-2.742c-0.524-0.532-1.409-0.798-2.655-0.798h-1.197c-1.246,0-2.131,0.266-2.655,0.798
		c-0.524,0.532-0.785,1.446-0.785,2.742v4.039C24.572,57.805,24.833,58.724,25.357,59.264"/>
	<path fill="#FFFFFF" d="M54.825,63.865H39.393v-3.042c0-0.797,0.083-1.513,0.248-2.144c0.167-0.631,0.458-1.217,0.873-1.758
		c0.417-0.54,0.968-1.064,1.659-1.57c0.689-0.508,1.558-1.035,2.605-1.584l3.965-2.068c0.433-0.216,0.739-0.429,0.922-0.637
		c0.183-0.208,0.275-0.469,0.275-0.785c0-0.465-0.159-0.78-0.474-0.947c-0.316-0.167-0.74-0.25-1.272-0.25h-8.402v-3.914h8.825
		c2.227,0,3.856,0.402,4.886,1.209c1.031,0.807,1.546,1.908,1.546,3.304c0,0.781-0.116,1.454-0.35,2.02
		c-0.232,0.564-0.577,1.072-1.034,1.521c-0.457,0.448-1.018,0.877-1.683,1.284c-0.665,0.407-1.43,0.843-2.294,1.308l-3.615,1.97
		c-0.566,0.299-0.927,0.573-1.085,0.823c-0.157,0.249-0.237,0.532-0.237,0.847v0.499h10.072V63.865z"/>
	<path fill="#FFFFFF" d="M74.941,59.177c-0.341,1.031-0.856,1.911-1.546,2.643c-0.689,0.731-1.558,1.296-2.605,1.695
		c-1.047,0.398-2.269,0.599-3.664,0.599H65.23c-1.397,0-2.618-0.204-3.665-0.611c-1.047-0.406-1.915-0.976-2.604-1.708
		c-0.69-0.731-1.206-1.616-1.546-2.656c-0.341-1.038-0.512-2.181-0.512-3.428v-2.592c0-1.23,0.17-2.353,0.512-3.366
		c0.34-1.014,0.856-1.878,1.546-2.593c0.689-0.714,1.558-1.266,2.604-1.657c1.048-0.391,2.269-0.587,3.665-0.587h1.895
		c1.395,0,2.618,0.2,3.664,0.599c1.048,0.399,1.916,0.956,2.605,1.671c0.69,0.714,1.205,1.583,1.546,2.605
		c0.342,1.023,0.512,2.149,0.512,3.379v2.593C75.453,57.008,75.283,58.147,74.941,59.177 M62.924,59.264
		c0.524,0.54,1.409,0.81,2.655,0.81h1.197c1.247,0,2.132-0.27,2.656-0.81c0.524-0.54,0.785-1.459,0.785-2.755V52.47
		c0-1.296-0.261-2.21-0.785-2.742c-0.524-0.532-1.409-0.798-2.656-0.798h-1.197c-1.246,0-2.131,0.266-2.655,0.798
		c-0.524,0.532-0.785,1.446-0.785,2.742v4.039C62.139,57.805,62.401,58.724,62.924,59.264"/>
</g>
</svg>
