<?xml version="1.0" encoding="utf-8"?>
<!-- Generator: Adobe Illustrator 17.0.0, SVG Export Plug-In . SVG Version: 6.00 Build 0)  -->
<!DOCTYPE svg PUBLIC "-//W3C//DTD SVG 1.1//EN" "http://www.w3.org/Graphics/SVG/1.1/DTD/svg11.dtd">
<svg version="1.1" id="Capa_1" xmlns="http://www.w3.org/2000/svg" xmlns:xlink="http://www.w3.org/1999/xlink" x="0px" y="0px"
	 width="117.546px" height="35.264px" viewBox="0 0 117.546 35.264" enable-background="new 0 0 117.546 35.264"
	 xml:space="preserve">
<g>
	<path fill="none" d="M52.743,21.57c1.083,3.839,4.609,6.6,8.79,6.6c2.009,0,3.863-0.827,5.374-1.827h-2.958L52.743,21.57z"/>
	<g>
		<circle cx="20.45" cy="22.793" r="6.761"/>
		<circle cx="93.677" cy="22.793" r="6.761"/>
		<path fill="none" d="M93.87,15.948c0.944,0.337,1.938,0.763,2.952,1.312l1.726,0.716C97.347,16.762,95.697,15.999,93.87,15.948z"
			/>
		<path fill="none" d="M18.339,16.274l0.341,0.831l2.859-1.072c-0.356-0.057-0.717-0.095-1.089-0.095
			C19.713,15.938,19.004,16.058,18.339,16.274z"/>
		<g>
			<path fill="#960000" d="M8.683,10.132c0,1.5-3.166,1.001-3.166,1.001l3.249,8.749H6.984v1.5h4.032l1.99,2.225
				c-0.042-0.322-0.071-0.564-0.071-0.897c0-3.318,2.164-5.936,5.153-6.929l-2.402-5.649C15.686,10.132,8.516,10.132,8.683,10.132z"
				/>
			<path fill="#960000" d="M110.735,22.882L99.851,18.44c0.844,1.215,1.342,2.726,1.342,4.314c0,0.447-0.047,0.902-0.122,1.328
				l1.322,0.075l3.03,3.066l8.81,0.13v-4.472H110.735z"/>
			<path fill="#960000" d="M87.117,14.733l-7.841,0.092l-0.781-0.943h-3.261v0.914l-11.565,0.061l-2.501-1.917
				c0,0-4.833-0.168-5.832-0.501c-1-0.333-0.917-1.669,0.749-1.835c0.845-0.085,0.666-2.338,0.166-2.838
				c-0.5-0.5-4.082-0.261-6.748-0.261S40.34,8.984,40.34,8.984l-17.675,6.627c3.066,0.948,5.301,3.712,5.301,7.085
				c0,2.19-0.947,3.936-2.446,5.436h59.473l-1.509-1.028v-5.123l2.581-0.176c0.422-3.189,2.928-5.754,6.049-6.38
				C89.161,14.634,87.117,14.733,87.117,14.733z"/>
		</g>
		<path opacity="0.4" fill="#B3B3B3" d="M83.484,22.882H27.956c-0.053,2.101-0.98,3.793-2.436,5.25h59.473l-1.509-1.028V22.882z"/>
	</g>
</g>
</svg>
