<?xml version="1.0" encoding="utf-8"?>
<!-- Generator: Adobe Illustrator 17.0.0, SVG Export Plug-In . SVG Version: 6.00 Build 0)  -->
<!DOCTYPE svg PUBLIC "-//W3C//DTD SVG 1.1//EN" "http://www.w3.org/Graphics/SVG/1.1/DTD/svg11.dtd">
<svg version="1.1" id="Capa_1" xmlns="http://www.w3.org/2000/svg" xmlns:xlink="http://www.w3.org/1999/xlink" x="0px" y="0px"
	 width="117.546px" height="35.264px" viewBox="0 0 117.546 35.264" enable-background="new 0 0 117.546 35.264"
	 xml:space="preserve">
<g>
	<g>
		<circle cx="19.141" cy="22.793" r="6.761"/>
		<circle cx="92.368" cy="22.793" r="6.761"/>
		<path fill="none" d="M92.561,15.948c0.944,0.337,1.938,0.763,2.952,1.312l1.726,0.716C96.038,16.762,94.387,15.999,92.561,15.948z
			"/>
		<path fill="none" d="M17.029,16.274l0.341,0.831l2.859-1.072c-0.356-0.057-0.717-0.095-1.089-0.095
			C18.404,15.938,17.695,16.058,17.029,16.274z"/>
		<g>
			<g>
				<g>
					<path fill="#00D2BE" d="M7.373,10.343c0,1-3.166,1.126-3.166,1.126l3.249,8.874H5.823v1h3.883l1.99,2.245
						c-0.042-0.322-0.071-0.554-0.071-0.887c0-3.318,2.164-5.826,5.153-6.819l-2.402-5.538C14.376,10.343,7.207,10.343,7.373,10.343
						z"/>
				</g>
				<g>
					<path fill="#00D2BE" d="M109.425,23.343l-10.884-4.672c0.844,1.215,1.342,2.611,1.342,4.199c0,0.447-0.047,0.845-0.122,1.27
						l1.322,0.047l2.98,3.052l8.759,0.115v-4.011H109.425z"/>
				</g>
				<g>
					<path fill="#00D2BE" d="M85.807,14.733l-7.841,0.323l-0.781-0.713h-3.362v0.453l-11.514,0.061l-2.475-1.917
						c0,0-4.82-0.168-5.82-0.501c-1-0.333-0.91-1.669,0.756-1.835c0.845-0.085,0.669-2.338,0.17-2.838
						c-0.5-0.5-4.081-0.261-6.746-0.261s-9.163,1.478-9.163,1.478l-17.674,6.627c3.066,0.948,5.301,3.817,5.301,7.191
						c0,2.19-0.947,3.541-2.446,5.541h59.473l-1.86-1.239v-5.123l2.757-0.176c0.422-3.189,3.016-5.754,6.137-6.38
						C87.764,14.634,85.807,14.733,85.807,14.733z"/>
				</g>
			</g>
		</g>
		<path opacity="0.4" fill="#B3B3B3" d="M82.174,22.882H26.646c-0.053,2.101-0.98,3.793-2.436,5.25h59.473l-1.509-1.028V22.882z"/>
	</g>
</g>
</svg>
