<?xml version="1.0" encoding="utf-8"?>
<!-- Generator: Adobe Illustrator 17.0.0, SVG Export Plug-In . SVG Version: 6.00 Build 0)  -->
<!DOCTYPE svg PUBLIC "-//W3C//DTD SVG 1.1//EN" "http://www.w3.org/Graphics/SVG/1.1/DTD/svg11.dtd">
<svg version="1.1" id="Capa_1" xmlns="http://www.w3.org/2000/svg" xmlns:xlink="http://www.w3.org/1999/xlink" x="0px" y="0px"
	 width="117.546px" height="35.264px" viewBox="0 0 117.546 35.264" enable-background="new 0 0 117.546 35.264"
	 xml:space="preserve">
<g>
	<g>
		<circle cx="19.355" cy="22.793" r="6.761"/>
		<circle cx="92.582" cy="22.793" r="6.761"/>
		<path fill="none" d="M12.762,24.658c0.812,2.879,3.457,5.003,6.593,5.003c1.507,0,2.897-0.318,4.03-1.318h-2.218L12.762,24.658z"
			/>
		<path fill="none" d="M92.775,15.948c0.944,0.337,1.938,0.763,2.952,1.312l1.726,0.716C96.252,16.762,94.602,15.999,92.775,15.948z
			"/>
		<path fill="none" d="M17.243,16.274l0.341,0.831l2.859-1.072c-0.356-0.057-0.717-0.095-1.089-0.095
			C18.618,15.938,17.909,16.058,17.243,16.274z"/>
		<g>
			<path fill="#DC0000" d="M7.588,10.132c0,1.5-3.166,1.001-3.166,1.001l3.249,8.749H5.889v1.5H9.92l1.99,2.225
				c-0.042-0.322-0.071-0.564-0.071-0.897c0-3.318,2.164-5.936,5.153-6.929l-2.402-5.649C14.591,10.132,7.421,10.132,7.588,10.132z"
				/>
			<path fill="#DC0000" d="M109.64,22.882L98.756,18.44c0.844,1.215,1.342,2.726,1.342,4.314c0,0.447-0.047,0.902-0.122,1.328
				l1.322,0.075l3.03,3.066l8.81,0.13v-4.472H109.64z"/>
			<path fill="#DC0000" d="M86.022,14.733l-7.841,0.092L77.4,13.882h-3.261v0.914l-11.565,0.061l-2.501-1.917
				c0,0-4.833-0.168-5.832-0.501c-1-0.333-0.917-1.669,0.749-1.835c0.845-0.085,0.666-2.338,0.166-2.838
				c-0.5-0.5-4.082-0.261-6.748-0.261c-2.666,0-9.164,1.478-9.164,1.478L21.57,15.611c3.066,0.948,5.301,3.712,5.301,7.085
				c0,2.19-0.947,3.936-2.446,5.436h59.473l-1.509-1.028v-5.123l2.581-0.176c0.422-3.189,2.928-5.754,6.049-6.38
				C88.066,14.634,86.022,14.733,86.022,14.733z"/>
		</g>
		<path opacity="0.4" fill="#B3B3B3" d="M82.139,22.882H26.611c-0.053,2.101-0.98,3.793-2.436,5.25h59.473l-1.509-1.028V22.882z"/>
	</g>
</g>
</svg>
