<?xml version="1.0" encoding="utf-8"?>
<!-- Generator: Adobe Illustrator 17.0.0, SVG Export Plug-In . SVG Version: 6.00 Build 0)  -->
<!DOCTYPE svg PUBLIC "-//W3C//DTD SVG 1.1//EN" "http://www.w3.org/Graphics/SVG/1.1/DTD/svg11.dtd">
<svg version="1.1" id="Capa_1" xmlns="http://www.w3.org/2000/svg" xmlns:xlink="http://www.w3.org/1999/xlink" x="0px" y="0px"
	 width="117.546px" height="35.264px" viewBox="0 0 117.546 35.264" enable-background="new 0 0 117.546 35.264"
	 xml:space="preserve">
<g>
	<g>
		<circle cx="19.302" cy="22.793" r="6.761"/>
		<circle cx="92.529" cy="22.793" r="6.761"/>
		<path fill="none" d="M12.709,24.658c0.812,2.879,3.457,5.003,6.593,5.003c1.507,0,2.897-0.318,4.03-1.318h-2.218L12.709,24.658z"
			/>
		<path fill="none" d="M92.722,15.948c0.944,0.337,1.938,0.763,2.952,1.312l1.726,0.716C96.199,16.762,94.548,15.999,92.722,15.948z
			"/>
		<path fill="none" d="M17.19,16.274l0.341,0.831l2.859-1.072c-0.356-0.057-0.717-0.095-1.089-0.095
			C18.565,15.938,17.856,16.058,17.19,16.274z"/>
		<g>
			<g>
				<g>
					<path fill="#FF8700" d="M7.535,10.343c0,1-3.166,1.126-3.166,1.126l3.249,8.874H5.823v1h4.044l1.99,2.245
						c-0.042-0.322-0.071-0.554-0.071-0.887c0-3.318,2.164-5.826,5.153-6.819l-2.402-5.538C14.537,10.343,7.368,10.343,7.535,10.343
						z"/>
				</g>
				<g>
					<path fill="#FF8700" d="M109.586,23.343l-10.884-4.672c0.844,1.215,1.342,2.611,1.342,4.199c0,0.447-0.047,0.845-0.122,1.27
						l1.322,0.047l2.899,3.052l8.679,0.115v-4.011H109.586z"/>
				</g>
				<g>
					<path fill="#FF8700" d="M85.969,14.733l-7.841,0.323l-0.781-0.713h-3.524v0.453l-11.434,0.061l-2.435-1.917
						c0,0-4.8-0.168-5.799-0.501c-1-0.333-0.9-1.669,0.766-1.835c0.845-0.085,0.674-2.338,0.175-2.838
						c-0.5-0.5-4.078-0.261-6.744-0.261c-2.666,0-9.162,1.478-9.162,1.478l-17.674,6.627c3.066,0.948,5.301,3.817,5.301,7.191
						c0,2.19-0.947,3.541-2.446,5.541h59.473l-1.022-1.239v-5.123l2.338-0.176c0.422-3.189,2.806-5.754,5.927-6.38
						C88.134,14.634,85.969,14.733,85.969,14.733z"/>
				</g>
			</g>
		</g>
		<path opacity="0.4" fill="#B3B3B3" d="M82.335,22.882H26.807c-0.053,2.101-0.98,3.793-2.436,5.25h59.473l-1.509-1.028V22.882z"/>
	</g>
</g>
</svg>
