<?xml version="1.0" encoding="utf-8"?>
<!-- Generator: Adobe Illustrator 17.0.0, SVG Export Plug-In . SVG Version: 6.00 Build 0)  -->
<!DOCTYPE svg PUBLIC "-//W3C//DTD SVG 1.1//EN" "http://www.w3.org/Graphics/SVG/1.1/DTD/svg11.dtd">
<svg version="1.1" id="Capa_1" xmlns="http://www.w3.org/2000/svg" xmlns:xlink="http://www.w3.org/1999/xlink" x="0px" y="0px"
	 width="55px" height="55px" viewBox="0 0 55 55" enable-background="new 0 0 55 55" xml:space="preserve">
<g>
	<path fill="#00D2BE" d="M47.352,50.747H12.963c-1.723,0-3.338-0.843-4.323-2.257h0c-4.114-5.902-6.319-12.923-6.319-20.118l0,0
		c0-13.321,10.798-24.119,24.119-24.119h0c11.51,0,21.416,8.133,23.657,19.422l3.006,15.141l-1.141,7.936
		C51.632,49.045,49.668,50.747,47.352,50.747z"/>
	<path fill="#FFFFFF" d="M46.331,14.736c-0.702-1.023-1.477-1.99-2.322-2.887l-33.547-1.537c-1.1,0.974-2.109,2.048-3.016,3.206
		L46.331,14.736z"/>
	<path fill="#00D2BE" d="M9.355,11.974H4.764c-1.801,0-3.156,1.641-2.814,3.41l1.255,6.501L9.355,11.974z"/>
	<path fill="#292929" d="M50.097,23.675c-0.067-0.335-0.141-0.667-0.221-0.996H29.94c-1.892,0-3.103,2.014-2.216,3.685l1.92,3.617
		c0.726,1.369,2.067,2.304,3.602,2.512l19.118,2.599L50.097,23.675z"/>
	<path d="M49.876,22.679L49.876,22.679c-0.856-3.531-2.471-6.725-4.647-9.427L9.355,11.974c0,0-0.559-0.039-0.595,0H4.764
		c-1.486,0-2.665,1.118-2.842,2.502c0.809,0.242,1.657,0.506,2.343,0.88c3.546,1.937,3.202,5.055,3.202,5.055L49.876,22.679z"/>
	<path fill="#FFFFFF" d="M29.901,36.384l-8.94-12.378l-18.04-0.975c-0.389,1.719-0.601,3.505-0.601,5.341l0,0
		c0,0.262,0.009,0.524,0.015,0.786l12.191,2.631l10.919,14.287l25.879,2.437c0.321-0.525,0.545-1.118,0.637-1.76l1.108-7.703
		L29.901,36.384z"/>
	<path fill="#B3B3B3" d="M51.962,46.752l0.985-6.853l-23.52-2.706l-8.921-12.353l-17.762-0.96c-0.269,1.426-0.416,2.895-0.422,4.397
		l12.693,2.739l10.883,14.24l25.824,2.432C51.832,47.39,51.915,47.078,51.962,46.752z"/>
	<path d="M9.355,34.277L2.58,32.611c0.69,5.687,2.759,11.144,6.059,15.879h0c0.985,1.414,2.6,2.257,4.323,2.257h24.356l-19.73-3.058
		L9.355,34.277z"/>
	<g>
		<polygon opacity="0.1" fill="#FFFFFF" points="52.049,33.509 50.499,25.7 42.454,33.745 50.694,34.865 		"/>
		<path opacity="0.1" fill="#FFFFFF" d="M31.236,22.679l-3.566,3.566c0.019,0.04,0.033,0.08,0.054,0.12l1.92,3.617
			c0.726,1.368,2.067,2.304,3.602,2.512l5.089,0.692L48.84,22.679H31.236z"/>
	</g>
	
		<ellipse transform="matrix(0.9005 0.4349 -0.4349 0.9005 9.4472 -13.8232)" opacity="0.2" fill="#FFFFFF" cx="34.927" cy="13.731" rx="9.607" ry="5.915"/>
	
		<ellipse transform="matrix(0.9005 0.4349 -0.4349 0.9005 19.5841 -2.2251)" opacity="0.2" fill="#FFFFFF" cx="14.654" cy="41.679" rx="9.607" ry="5.915"/>
</g>
</svg>
