<?xml version="1.0" encoding="utf-8"?>
<!-- Generator: Adobe Illustrator 17.0.0, SVG Export Plug-In . SVG Version: 6.00 Build 0)  -->
<!DOCTYPE svg PUBLIC "-//W3C//DTD SVG 1.1//EN" "http://www.w3.org/Graphics/SVG/1.1/DTD/svg11.dtd">
<svg version="1.1" id="Capa_1" xmlns="http://www.w3.org/2000/svg" xmlns:xlink="http://www.w3.org/1999/xlink" x="0px" y="0px"
	 width="1143px" height="143px" viewBox="0 0 1143 143" enable-background="new 0 0 1143 143" xml:space="preserve">
<rect x="-0.5" y="0.5" fill="#DADCDA" width="1143" height="143"/>
<rect x="-0.5" y="0.5" fill="#C0C4C1" width="143" height="143"/>
<rect x="279.5" y="0.5" fill="#C0C4C1" width="143" height="143"/>
<rect x="567.5" y="0.5" fill="#C0C4C1" width="143" height="143"/>
<rect x="856.5" y="0.5" fill="#C0C4C1" width="143" height="143"/>
<g>
	<path fill="none" d="M59.92,57.477c1.083,3.839,4.609,6.725,8.79,6.725c2.009,0,3.863-0.702,5.374-1.702h-2.958L59.92,57.477z"/>
	<g>
		<circle cx="27.627" cy="58.45" r="6.761"/>
		<circle cx="100.855" cy="58.45" r="6.761"/>
		<path fill="none" d="M101.048,51.605c0.944,0.337,1.938,0.763,2.952,1.312l1.726,0.716
			C104.524,52.42,102.874,51.657,101.048,51.605z"/>
		<path fill="none" d="M25.516,51.932l0.341,0.831l2.859-1.072c-0.356-0.057-0.717-0.095-1.089-0.095
			C26.89,51.596,26.182,51.716,25.516,51.932z"/>
		<g>
			<path fill="#960000" d="M15.86,45.79c0,1.5-3.166,1.001-3.166,1.001l3.249,8.749H14.16v1.5h4.032l1.99,2.225
				c-0.042-0.322-0.071-0.564-0.071-0.897c0-3.318,2.164-5.936,5.153-6.929l-2.402-5.649C22.863,45.79,15.693,45.79,15.86,45.79z"/>
			<path fill="#960000" d="M117.912,58.54l-10.884-4.442c0.844,1.215,1.342,2.726,1.342,4.314c0,0.447-0.047,0.902-0.122,1.328
				l1.322,0.075l3.03,3.066l8.81,0.13V58.54H117.912z"/>
			<path fill="#960000" d="M94.294,50.39l-7.841,0.092l-0.781-0.943h-3.261v0.914l-11.565,0.061l-2.501-1.917
				c0,0-4.833-0.168-5.832-0.501c-1-0.333-0.917-1.669,0.749-1.835c0.845-0.085,0.666-2.338,0.166-2.838s-4.082-0.261-6.748-0.261
				s-9.164,1.478-9.164,1.478l-17.675,6.627c3.066,0.948,5.301,3.712,5.301,7.085c0,2.19-0.947,3.936-2.446,5.436H92.17
				l-1.509-1.028v-5.123l2.581-0.176c0.422-3.189,2.928-5.754,6.049-6.38C96.338,50.291,94.294,50.39,94.294,50.39z"/>
		</g>
		<path opacity="0.4" fill="#B3B3B3" enable-background="new    " d="M90.661,58.54H35.133c-0.053,2.101-0.98,3.793-2.436,5.25
			H92.17l-1.509-1.028C90.661,62.762,90.661,58.54,90.661,58.54z"/>
	</g>
	<g>
		<path fill="#1D1D1B" d="M30.526,91l-0.649-1.727h-3.861L25.356,91h-2.222l2.739-6.654c0.213-0.521,0.475-0.939,0.787-1.255
			c0.312-0.315,0.743-0.473,1.292-0.473c0.572,0,1.021,0.155,1.348,0.468c0.326,0.312,0.592,0.724,0.797,1.237L32.814,91H30.526z
			 M27.766,84.741l-1.089,2.827h2.552l-1.067-2.827c-0.022-0.052-0.046-0.097-0.071-0.138c-0.026-0.04-0.068-0.061-0.127-0.061
			c-0.051,0-0.092,0.019-0.121,0.055C27.813,84.635,27.788,84.683,27.766,84.741z"/>
		<path fill="#1D1D1B" d="M33.584,91v-8.25h2.2v6.436h4.191V91H33.584z"/>
		<path fill="#1D1D1B" d="M41.021,91v-8.25h6.501v1.814h-4.301v1.519h4.301v1.815h-4.301V91H41.021z"/>
		<path fill="#1D1D1B" d="M54.308,91l-0.649-1.727h-3.861L49.138,91h-2.222l2.739-6.654c0.213-0.521,0.475-0.939,0.787-1.255
			c0.312-0.315,0.743-0.473,1.292-0.473c0.572,0,1.021,0.155,1.348,0.468c0.326,0.312,0.592,0.724,0.797,1.237L56.596,91H54.308z
			 M51.547,84.741l-1.089,2.827h2.552l-1.067-2.827c-0.022-0.052-0.046-0.097-0.071-0.138c-0.026-0.04-0.068-0.061-0.127-0.061
			c-0.051,0-0.092,0.019-0.121,0.055C51.595,84.635,51.569,84.683,51.547,84.741z"/>
		<path fill="#1D1D1B" d="M67.926,91h-2.464l-2.189-2.52c-0.183-0.212-0.312-0.421-0.385-0.627c-0.074-0.205-0.11-0.389-0.11-0.549
			c0-0.359,0.11-0.633,0.33-0.82c0.22-0.188,0.517-0.28,0.891-0.28h1.089c0.242,0,0.422-0.067,0.539-0.204
			c0.117-0.135,0.176-0.306,0.176-0.512v-0.362c0-0.22-0.057-0.389-0.171-0.506s-0.302-0.177-0.566-0.177h-2.86V91h-2.2v-8.25h4.84
			c1.063,0,1.848,0.176,2.354,0.527c0.506,0.353,0.759,0.921,0.759,1.705v0.474c0,0.345-0.07,0.651-0.209,0.919
			s-0.325,0.492-0.556,0.676s-0.502,0.324-0.814,0.424s-0.64,0.148-0.984,0.148h-0.264L67.926,91z"/>
		<path fill="#1D1D1B" d="M77.243,87.447c0,0.55-0.083,1.051-0.248,1.502c-0.165,0.45-0.412,0.836-0.742,1.154
			S75.505,90.67,75,90.846c-0.506,0.176-1.093,0.264-1.76,0.264h-0.726c-0.667,0-1.254-0.088-1.76-0.264s-0.924-0.424-1.254-0.742
			c-0.33-0.318-0.578-0.704-0.743-1.154c-0.165-0.451-0.248-0.952-0.248-1.502v-1.145c0-0.55,0.083-1.051,0.248-1.502
			c0.165-0.45,0.413-0.836,0.743-1.154c0.33-0.318,0.748-0.566,1.254-0.742s1.092-0.264,1.76-0.264h0.726
			c0.667,0,1.254,0.088,1.76,0.264c0.506,0.176,0.924,0.424,1.254,0.742s0.578,0.704,0.742,1.154
			c0.165,0.451,0.248,0.952,0.248,1.502L77.243,87.447L77.243,87.447z M70.819,87.535c0,0.652,0.123,1.115,0.369,1.386
			s0.666,0.407,1.259,0.407h0.858c0.594,0,1.014-0.136,1.26-0.407c0.246-0.271,0.368-0.733,0.368-1.386v-1.342
			c0-0.652-0.123-1.113-0.368-1.381c-0.246-0.268-0.666-0.401-1.26-0.401h-0.858c-0.594,0-1.014,0.134-1.259,0.401
			c-0.246,0.268-0.369,0.729-0.369,1.381V87.535z"/>
		<path fill="#1D1D1B" d="M78.123,91l0.517-5.896c0.073-0.879,0.313-1.514,0.721-1.902c0.407-0.389,0.922-0.583,1.545-0.583
			c0.667,0,1.197,0.203,1.589,0.61s0.644,0.963,0.753,1.666l0.649,4.104c0.015,0.088,0.039,0.154,0.072,0.197
			c0.033,0.045,0.086,0.066,0.159,0.066s0.128-0.025,0.165-0.076c0.037-0.052,0.059-0.121,0.066-0.209l0.627-4.093
			c0.103-0.696,0.35-1.248,0.742-1.655s0.918-0.61,1.579-0.61c0.697,0,1.215,0.196,1.557,0.589c0.341,0.393,0.548,1.024,0.622,1.896
			L90.003,91H87.88l-0.44-6.215c-0.007-0.073-0.02-0.136-0.039-0.188c-0.018-0.051-0.064-0.076-0.137-0.076
			c-0.059,0-0.106,0.023-0.143,0.07c-0.037,0.049-0.059,0.105-0.066,0.172l-0.737,4.41c-0.095,0.587-0.332,1.061-0.709,1.419
			c-0.377,0.359-0.875,0.539-1.49,0.539c-0.638,0-1.148-0.185-1.529-0.556c-0.381-0.37-0.62-0.842-0.715-1.413l-0.77-4.39
			c-0.015-0.08-0.041-0.143-0.077-0.187c-0.037-0.044-0.084-0.065-0.143-0.065c-0.074,0-0.123,0.025-0.148,0.076
			c-0.026,0.052-0.042,0.117-0.05,0.198L80.246,91H78.123z"/>
		<path fill="#1D1D1B" d="M91.158,91v-8.25h6.886v1.814h-4.741v1.431h4.741v1.76h-4.741v1.431h4.741V91H91.158z"/>
		<path fill="#1D1D1B" d="M107.845,87.447c0,0.55-0.083,1.051-0.248,1.502c-0.165,0.45-0.412,0.836-0.742,1.154
			s-0.748,0.566-1.254,0.742c-0.506,0.176-1.093,0.264-1.76,0.264h-0.726c-0.667,0-1.254-0.088-1.76-0.264s-0.924-0.424-1.254-0.742
			c-0.33-0.318-0.578-0.704-0.743-1.154c-0.165-0.451-0.248-0.952-0.248-1.502v-1.145c0-0.55,0.083-1.051,0.248-1.502
			c0.165-0.45,0.413-0.836,0.743-1.154c0.33-0.318,0.748-0.566,1.254-0.742s1.092-0.264,1.76-0.264h0.726
			c0.667,0,1.254,0.088,1.76,0.264c0.506,0.176,0.924,0.424,1.254,0.742s0.578,0.704,0.742,1.154
			c0.165,0.451,0.248,0.952,0.248,1.502V87.447z M101.421,87.535c0,0.652,0.123,1.115,0.369,1.386s0.666,0.407,1.259,0.407h0.858
			c0.594,0,1.014-0.136,1.26-0.407c0.246-0.271,0.368-0.733,0.368-1.386v-1.342c0-0.652-0.123-1.113-0.368-1.381
			c-0.246-0.268-0.666-0.401-1.26-0.401h-0.858c-0.594,0-1.014,0.134-1.259,0.401c-0.246,0.268-0.369,0.729-0.369,1.381V87.535z"/>
		<path fill="#1D1D1B" d="M61.92,98.238v0.484c0,0.447-0.083,0.818-0.248,1.116c-0.165,0.297-0.387,0.532-0.666,0.704
			s-0.6,0.293-0.962,0.363c-0.363,0.069-0.743,0.104-1.139,0.104h-2.937v3.19h-1.265v-8.25h4.202c0.396,0,0.775,0.034,1.139,0.104
			c0.363,0.07,0.684,0.191,0.962,0.363s0.5,0.406,0.666,0.703S61.92,97.791,61.92,98.238z M60.601,98.744v-0.527
			c0-0.396-0.108-0.689-0.325-0.881c-0.216-0.19-0.607-0.285-1.171-0.285H55.97v2.859h3.135c0.564,0,0.955-0.096,1.171-0.286
			S60.601,99.141,60.601,98.744z"/>
		<path fill="#1D1D1B" d="M67.08,95.95c0.975,0,1.727,0.142,2.255,0.423c0.528,0.283,0.792,0.828,0.792,1.635v0.385
			c0,0.352-0.088,0.669-0.264,0.951s-0.502,0.5-0.979,0.654c0.528,0.169,0.902,0.411,1.122,0.727c0.22,0.314,0.33,0.652,0.33,1.012
			v0.406c0,0.808-0.27,1.352-0.809,1.635c-0.539,0.281-1.326,0.423-2.359,0.423h-3.817v-8.25L67.08,95.95L67.08,95.95z
			 M67.508,97.051h-2.893v2.485h2.871c0.484,0,0.825-0.086,1.023-0.259c0.198-0.172,0.297-0.43,0.297-0.775v-0.517
			c0-0.315-0.101-0.55-0.302-0.704S67.97,97.051,67.508,97.051z M67.695,100.637h-3.08v2.463h3.091c0.499,0,0.841-0.078,1.028-0.236
			c0.187-0.157,0.28-0.394,0.28-0.709v-0.518c0-0.293-0.093-0.533-0.28-0.721C68.548,100.729,68.201,100.637,67.695,100.637z"/>
		<path fill="#1D1D1B" d="M78.806,104.2l-0.946-2.222h-4.62l-0.946,2.222H70.94l3.113-7.04c0.176-0.396,0.365-0.721,0.566-0.974
			s0.515-0.38,0.94-0.38c0.418,0,0.731,0.121,0.94,0.363s0.387,0.532,0.534,0.869l3.146,7.161L78.806,104.2L78.806,104.2z
			 M75.22,97.314l-1.485,3.498h3.63l-1.485-3.487c-0.051-0.132-0.103-0.222-0.154-0.27s-0.11-0.071-0.176-0.071
			s-0.123,0.02-0.171,0.061C75.331,97.085,75.278,97.175,75.22,97.314z"/>
	</g>
</g>
<g>
	<g>
		<circle cx="171.23" cy="58.45" r="6.761"/>
		<circle cx="244.458" cy="58.45" r="6.761"/>
		<path fill="none" d="M164.638,60.565c0.812,2.879,3.457,5.128,6.593,5.128c1.507,0,2.897-0.193,4.03-1.193h-2.218L164.638,60.565z
			"/>
		<path fill="none" d="M244.651,51.605c0.944,0.337,1.938,0.763,2.952,1.312l1.726,0.716
			C248.128,52.42,246.477,51.657,244.651,51.605z"/>
		<path fill="none" d="M169.119,51.932l0.341,0.831l2.859-1.072c-0.356-0.057-0.717-0.095-1.089-0.095
			C170.494,51.596,169.785,51.716,169.119,51.932z"/>
		<g>
			<path fill="#DC0000" d="M159.463,45.79c0,1.5-3.166,1.001-3.166,1.001l3.249,8.749h-1.783v1.5h4.032l1.99,2.225
				c-0.042-0.322-0.071-0.564-0.071-0.897c0-3.318,2.164-5.936,5.153-6.929l-2.402-5.649C166.466,45.79,159.297,45.79,159.463,45.79
				z"/>
			<path fill="#DC0000" d="M261.515,58.54l-10.884-4.442c0.844,1.215,1.342,2.726,1.342,4.314c0,0.447-0.047,0.902-0.122,1.328
				l1.322,0.075l3.03,3.066l8.81,0.13V58.54H261.515z"/>
			<path fill="#DC0000" d="M237.897,50.39l-7.841,0.092l-0.781-0.943h-3.261v0.914l-11.565,0.061l-2.501-1.917
				c0,0-4.833-0.168-5.832-0.501c-1-0.333-0.917-1.669,0.749-1.835c0.845-0.085,0.666-2.338,0.166-2.838s-4.082-0.261-6.748-0.261
				s-9.164,1.478-9.164,1.478l-17.675,6.627c3.066,0.948,5.301,3.712,5.301,7.085c0,2.19-0.947,3.936-2.446,5.436h59.473
				l-1.509-1.028v-5.123l2.581-0.176c0.422-3.189,2.928-5.754,6.049-6.38C239.941,50.291,237.897,50.39,237.897,50.39z"/>
		</g>
		<path opacity="0.4" fill="#B3B3B3" enable-background="new    " d="M234.014,58.54h-55.528c-0.053,2.101-0.98,3.793-2.436,5.25
			h59.473l-1.509-1.028V58.54z"/>
	</g>
	<g>
		<path fill="#1D1D1B" d="M183.179,91v-8.25h6.501v1.814h-4.301v1.519h4.301v1.815h-4.301V91H183.179z"/>
		<path fill="#1D1D1B" d="M191.055,91v-8.25h6.886v1.814H193.2v1.431h4.741v1.76H193.2v1.431h4.741V91H191.055z"/>
		<path fill="#1D1D1B" d="M207.202,91h-2.464l-2.189-2.52c-0.183-0.212-0.312-0.421-0.385-0.627c-0.074-0.205-0.11-0.389-0.11-0.549
			c0-0.359,0.11-0.633,0.33-0.82c0.22-0.188,0.517-0.28,0.891-0.28h1.089c0.242,0,0.422-0.067,0.539-0.204
			c0.117-0.135,0.176-0.306,0.176-0.512v-0.362c0-0.22-0.057-0.389-0.171-0.506s-0.302-0.177-0.566-0.177h-2.86V91h-2.2v-8.25h4.84
			c1.063,0,1.848,0.176,2.354,0.527c0.506,0.353,0.759,0.921,0.759,1.705v0.474c0,0.345-0.07,0.651-0.209,0.919
			s-0.325,0.492-0.556,0.676s-0.502,0.324-0.814,0.424s-0.64,0.148-0.984,0.148h-0.264L207.202,91z"/>
		<path fill="#1D1D1B" d="M216.09,91h-2.464l-2.189-2.52c-0.183-0.212-0.312-0.421-0.385-0.627c-0.074-0.205-0.11-0.389-0.11-0.549
			c0-0.359,0.11-0.633,0.33-0.82c0.22-0.188,0.517-0.28,0.891-0.28h1.089c0.242,0,0.422-0.067,0.539-0.204
			c0.117-0.135,0.176-0.306,0.176-0.512v-0.362c0-0.22-0.057-0.389-0.171-0.506s-0.302-0.177-0.566-0.177h-2.86V91h-2.2v-8.25h4.84
			c1.063,0,1.848,0.176,2.354,0.527c0.506,0.353,0.759,0.921,0.759,1.705v0.474c0,0.345-0.07,0.651-0.209,0.919
			s-0.325,0.492-0.556,0.676s-0.502,0.324-0.814,0.424s-0.64,0.148-0.984,0.148h-0.264L216.09,91z"/>
		<path fill="#1D1D1B" d="M223.791,91l-0.649-1.727h-3.861L218.621,91h-2.222l2.739-6.654c0.213-0.521,0.475-0.939,0.787-1.255
			c0.312-0.315,0.743-0.473,1.292-0.473c0.572,0,1.021,0.155,1.348,0.468c0.326,0.312,0.592,0.724,0.797,1.237L226.079,91H223.791z
			 M221.03,84.741l-1.089,2.827h2.552l-1.067-2.827c-0.022-0.052-0.046-0.097-0.071-0.138c-0.026-0.04-0.068-0.061-0.127-0.061
			c-0.051,0-0.092,0.019-0.121,0.055C221.077,84.635,221.052,84.683,221.03,84.741z"/>
		<path fill="#1D1D1B" d="M234.768,91h-2.464l-2.189-2.52c-0.183-0.212-0.312-0.421-0.385-0.627c-0.074-0.205-0.11-0.389-0.11-0.549
			c0-0.359,0.11-0.633,0.33-0.82c0.22-0.188,0.517-0.28,0.891-0.28h1.089c0.242,0,0.422-0.067,0.539-0.204
			c0.117-0.135,0.176-0.306,0.176-0.512v-0.362c0-0.22-0.057-0.389-0.171-0.506s-0.302-0.177-0.566-0.177h-2.86V91h-2.2v-8.25h4.84
			c1.063,0,1.848,0.176,2.354,0.527c0.506,0.353,0.759,0.921,0.759,1.705v0.474c0,0.345-0.07,0.651-0.209,0.919
			s-0.325,0.492-0.556,0.676s-0.502,0.324-0.814,0.424s-0.64,0.148-0.984,0.148h-0.264L234.768,91z"/>
		<path fill="#1D1D1B" d="M235.792,91v-8.25h2.2V91H235.792z"/>
		<path fill="#1D1D1B" d="M191.693,103.1v1.101h-3.641c-0.645,0-1.199-0.084-1.661-0.253c-0.462-0.168-0.838-0.41-1.128-0.727
			c-0.29-0.314-0.502-0.694-0.638-1.139c-0.136-0.443-0.204-0.939-0.204-1.49v-1.033c0-0.551,0.068-1.047,0.204-1.49
			c0.136-0.444,0.348-0.824,0.638-1.139c0.29-0.316,0.666-0.558,1.128-0.727c0.462-0.168,1.016-0.253,1.661-0.253h3.586v1.101
			h-3.751c-0.763,0-1.302,0.182-1.617,0.544s-0.473,0.915-0.473,1.655v1.65c0,0.74,0.158,1.293,0.473,1.655s0.854,0.544,1.617,0.544
			L191.693,103.1L191.693,103.1z"/>
		<path fill="#1D1D1B" d="M193.123,104.2v-8.25h6.611v1.101h-5.346v2.408h5.346v1.1h-5.346v2.541h5.346v1.101L193.123,104.2
			L193.123,104.2z"/>
		<path fill="#1D1D1B" d="M201.461,104.2v-6.71c0-0.469,0.117-0.867,0.352-1.193c0.235-0.326,0.624-0.49,1.166-0.49
			c0.381,0,0.697,0.11,0.946,0.33c0.249,0.221,0.502,0.539,0.759,0.957l3.52,5.688c0.066,0.103,0.132,0.188,0.198,0.253
			s0.132,0.099,0.198,0.099c0.088,0,0.158-0.031,0.209-0.094c0.051-0.062,0.077-0.151,0.077-0.27v-6.82h1.265v6.787
			c0,0.483-0.123,0.872-0.369,1.166s-0.607,0.44-1.083,0.44c-0.403,0-0.728-0.107-0.974-0.319c-0.246-0.213-0.479-0.495-0.698-0.847
			l-3.597-5.775c-0.073-0.117-0.136-0.211-0.187-0.281c-0.051-0.068-0.121-0.104-0.209-0.104c-0.11,0-0.189,0.037-0.236,0.109
			c-0.048,0.074-0.072,0.173-0.072,0.297v6.776L201.461,104.2L201.461,104.2z"/>
		<path fill="#1D1D1B" d="M214.386,104.2v-7.149h-3.3V95.95h7.865v1.101h-3.3v7.149H214.386z"/>
		<path fill="#1D1D1B" d="M227.256,104.2h-1.54l-3.256-3.53c-0.11-0.118-0.186-0.25-0.226-0.396
			c-0.041-0.146-0.042-0.282-0.006-0.407c0.037-0.117,0.116-0.218,0.237-0.303c0.121-0.084,0.273-0.126,0.457-0.126h1.903
			c0.477,0,0.809-0.074,0.996-0.221s0.28-0.418,0.28-0.813v-0.341c0-0.396-0.093-0.664-0.28-0.803
			c-0.187-0.14-0.519-0.209-0.996-0.209h-3.454v7.149h-1.265v-8.25h4.444c0.403,0,0.779,0.033,1.127,0.099
			c0.348,0.066,0.651,0.18,0.908,0.342c0.256,0.161,0.456,0.379,0.599,0.654s0.215,0.621,0.215,1.039v0.297
			c0,0.836-0.255,1.4-0.765,1.694s-1.223,0.44-2.14,0.44h-0.539L227.256,104.2z"/>
		<path fill="#1D1D1B" d="M236.804,100.735c0,0.542-0.071,1.036-0.214,1.479s-0.361,0.821-0.654,1.133
			c-0.293,0.313-0.669,0.554-1.128,0.727c-0.458,0.172-1.002,0.258-1.633,0.258h-1.1c-0.631,0-1.177-0.086-1.639-0.258
			c-0.462-0.173-0.84-0.414-1.133-0.727c-0.293-0.312-0.51-0.689-0.649-1.133s-0.209-0.938-0.209-1.479v-1.32
			c0-0.55,0.07-1.046,0.209-1.49s0.355-0.823,0.649-1.139s0.671-0.558,1.133-0.726c0.462-0.169,1.008-0.254,1.639-0.254h1.1
			c0.631,0,1.175,0.085,1.633,0.254c0.458,0.168,0.834,0.41,1.128,0.726c0.293,0.315,0.511,0.694,0.654,1.139s0.214,0.94,0.214,1.49
			V100.735z M229.819,101.032c0,0.733,0.161,1.283,0.484,1.649c0.323,0.367,0.858,0.551,1.606,0.551h1.43
			c0.755,0,1.292-0.184,1.611-0.551c0.319-0.366,0.479-0.916,0.479-1.649v-1.925c0-0.74-0.159-1.293-0.479-1.656
			c-0.319-0.362-0.856-0.544-1.611-0.544h-1.43c-0.748,0-1.283,0.182-1.606,0.544c-0.323,0.363-0.484,0.916-0.484,1.656V101.032z"/>
	</g>
</g>
<g>
	<g>
		<circle cx="315.002" cy="58.45" r="6.761"/>
		<circle cx="388.229" cy="58.45" r="6.761"/>
		<path fill="none" d="M308.409,60.565c0.812,2.879,3.457,5.128,6.593,5.128c1.507,0,2.897-0.193,4.03-1.193h-2.218L308.409,60.565z
			"/>
		<path fill="none" d="M388.422,51.605c0.944,0.337,1.938,0.763,2.952,1.312l1.726,0.716
			C391.899,52.42,390.248,51.657,388.422,51.605z"/>
		<path fill="none" d="M312.89,51.932l0.341,0.831l2.859-1.072c-0.356-0.057-0.717-0.095-1.089-0.095
			C314.265,51.596,313.556,51.716,312.89,51.932z"/>
		<g>
			<g>
				<g>
					<path fill="#787878" d="M303.234,45.5c0,2-3.166,1.126-3.166,1.126l3.249,8.874H301.5v2h4.067l1.99,1.995
						c-0.042-0.322-0.071-0.679-0.071-1.012c0-3.318,2.164-6.138,5.153-7.132l-2.402-5.851C310.237,45.5,303.068,45.5,303.234,45.5z
						"/>
				</g>
				<g>
					<path fill="#787878" d="M405.286,58.5l-10.884-4.422c0.844,1.215,1.342,2.736,1.342,4.324c0,0.447-0.047,0.907-0.122,1.333
						l1.322,0.078l2.888,3.068l8.667,0.131V58.5H405.286z"/>
				</g>
				<g>
					<path fill="#787878" d="M381.669,50.39l-7.841,0.073l-0.781-0.963H369.5v0.953l-11.422,0.061l-2.429-1.917
						c0,0-4.797-0.168-5.797-0.501s-0.899-1.669,0.767-1.835c0.845-0.085,0.675-2.338,0.175-2.838s-4.078-0.261-6.744-0.261
						s-9.162,1.478-9.162,1.478l-17.674,6.627c3.066,0.948,5.301,3.567,5.301,6.941c0,2.19-0.946,4.291-2.446,5.291h59.473
						l-1.044-0.739v-5.123l2.349-0.176c0.422-3.189,2.812-5.754,5.932-6.38C383.829,50.291,381.669,50.39,381.669,50.39z"/>
				</g>
			</g>
		</g>
		<path opacity="0.4" fill="#B3B3B3" enable-background="new    " d="M378.285,58.54h-55.528c-0.053,2.101-0.98,3.793-2.436,5.25
			h59.473l-1.509-1.028V58.54z"/>
	</g>
	<g>
		<path fill="#1D1D1B" d="M336.334,91v-8.25h2.2v3.124h3.904V82.75h2.2V91h-2.2v-3.201h-3.904V91H336.334z"/>
		<path fill="#1D1D1B" d="M352.801,91l-0.649-1.727h-3.86L347.631,91h-2.222l2.738-6.654c0.213-0.521,0.475-0.939,0.787-1.255
			c0.312-0.315,0.742-0.473,1.292-0.473c0.572,0,1.021,0.155,1.348,0.468c0.326,0.312,0.592,0.724,0.798,1.237L355.089,91H352.801z
			 M350.04,84.741l-1.089,2.827h2.552l-1.067-2.827c-0.021-0.052-0.046-0.097-0.071-0.138c-0.025-0.04-0.068-0.061-0.127-0.061
			c-0.051,0-0.092,0.019-0.12,0.055C350.087,84.635,350.062,84.683,350.04,84.741z"/>
		<path fill="#1D1D1B" d="M362.591,91l-0.649-1.727h-3.86L357.421,91h-2.222l2.738-6.654c0.213-0.521,0.475-0.939,0.787-1.255
			c0.312-0.315,0.742-0.473,1.292-0.473c0.572,0,1.021,0.155,1.348,0.468c0.326,0.312,0.592,0.724,0.798,1.237L364.879,91H362.591z
			 M359.83,84.741l-1.089,2.827h2.552l-1.067-2.827c-0.021-0.052-0.046-0.097-0.071-0.138c-0.025-0.04-0.068-0.061-0.127-0.061
			c-0.051,0-0.092,0.019-0.12,0.055C359.877,84.635,359.852,84.683,359.83,84.741z"/>
		<path fill="#1D1D1B" d="M369.708,87.932l-1.98-0.584c-0.763-0.227-1.327-0.539-1.693-0.935c-0.367-0.396-0.551-0.869-0.551-1.419
			c0-0.689,0.242-1.236,0.727-1.639c0.483-0.404,1.166-0.605,2.046-0.605h4.235v1.814h-4.246c-0.235,0-0.4,0.043-0.495,0.127
			c-0.096,0.084-0.144,0.178-0.144,0.281c0,0.131,0.046,0.24,0.138,0.324s0.24,0.155,0.445,0.215l2.014,0.582
			c0.851,0.25,1.49,0.556,1.919,0.919c0.43,0.362,0.644,0.87,0.644,1.523c0,0.337-0.064,0.656-0.192,0.957s-0.322,0.562-0.583,0.78
			c-0.261,0.221-0.59,0.396-0.99,0.528c-0.399,0.132-0.867,0.198-1.402,0.198h-3.894v-1.814h4.224c0.278,0,0.473-0.056,0.583-0.166
			c0.11-0.109,0.165-0.238,0.165-0.385c0-0.176-0.067-0.31-0.203-0.401C370.337,88.143,370.082,88.041,369.708,87.932z"/>
		<path fill="#1D1D1B" d="M341.169,104.2v-6.71c0-0.469,0.117-0.867,0.352-1.193s0.623-0.49,1.166-0.49
			c0.381,0,0.696,0.11,0.946,0.33c0.249,0.221,0.502,0.539,0.759,0.957l3.52,5.688c0.066,0.103,0.133,0.188,0.198,0.253
			c0.066,0.065,0.132,0.099,0.198,0.099c0.088,0,0.157-0.031,0.209-0.094c0.051-0.062,0.077-0.151,0.077-0.27v-6.82h1.265v6.787
			c0,0.483-0.123,0.872-0.368,1.166c-0.246,0.294-0.607,0.44-1.084,0.44c-0.403,0-0.728-0.107-0.974-0.319
			c-0.245-0.213-0.479-0.495-0.698-0.847l-3.597-5.775c-0.073-0.117-0.136-0.211-0.188-0.281c-0.051-0.068-0.121-0.104-0.209-0.104
			c-0.109,0-0.188,0.037-0.236,0.109c-0.048,0.074-0.071,0.173-0.071,0.297v6.776L341.169,104.2L341.169,104.2z"/>
		<path fill="#1D1D1B" d="M351.839,104.2v-8.25h6.61v1.101h-5.346v2.408h5.346v1.1h-5.346v2.541h5.346v1.101L351.839,104.2
			L351.839,104.2z"/>
		<path fill="#1D1D1B" d="M367.161,104.2l-0.946-2.222h-4.619l-0.946,2.222h-1.354l3.113-7.04c0.176-0.396,0.365-0.721,0.566-0.974
			c0.202-0.253,0.516-0.38,0.94-0.38c0.418,0,0.731,0.121,0.94,0.363s0.387,0.532,0.534,0.869l3.146,7.161L367.161,104.2
			L367.161,104.2z M363.575,97.314l-1.485,3.498h3.631l-1.485-3.487c-0.052-0.132-0.103-0.222-0.154-0.27s-0.109-0.071-0.176-0.071
			s-0.123,0.02-0.171,0.061C363.687,97.085,363.634,97.175,363.575,97.314z"/>
	</g>
</g>
<g>
	<g>
		<circle cx="459.124" cy="58.45" r="6.761"/>
		<circle cx="532.351" cy="58.45" r="6.761"/>
		<path fill="none" d="M452.532,60.565c0.812,2.879,3.457,5.128,6.593,5.128c1.507,0,2.897-0.193,4.03-1.193h-2.218L452.532,60.565z
			"/>
		<path fill="none" d="M532.544,51.605c0.944,0.337,1.938,0.763,2.952,1.312l1.726,0.716
			C536.021,52.42,534.371,51.657,532.544,51.605z"/>
		<path fill="none" d="M457.013,51.932l0.341,0.831l2.859-1.072c-0.356-0.057-0.717-0.095-1.089-0.095
			C458.387,51.596,457.678,51.716,457.013,51.932z"/>
		<g>
			<g>
				<g>
					<path fill="#FF8700" d="M447.357,45.5c0,2-3.166,1.126-3.166,1.126l3.249,8.874h-1.94v2h4.189l1.99,1.995
						c-0.042-0.322-0.071-0.679-0.071-1.012c0-3.318,2.164-6.138,5.153-7.132L454.36,45.5C454.36,45.5,447.19,45.5,447.357,45.5z"/>
				</g>
				<g>
					<path fill="#FF8700" d="M549.409,58.5l-10.884-4.422c0.844,1.215,1.342,2.736,1.342,4.324c0,0.447-0.047,0.907-0.122,1.333
						l1.322,0.078l2.827,3.068l8.606,0.131V58.5H549.409z"/>
				</g>
				<g>
					<path fill="#FF8700" d="M525.791,50.39l-7.841,0.073l-0.781-0.963H513.5v0.953l-11.361,0.061l-2.399-1.917
						c0,0-4.782-0.168-5.781-0.501c-1-0.333-0.891-1.669,0.775-1.835c0.845-0.085,0.679-2.338,0.179-2.838s-4.076-0.261-6.742-0.261
						c-2.666,0-9.161,1.478-9.161,1.478l-17.673,6.627c3.066,0.948,5.302,3.567,5.302,6.941c0,2.19-0.946,4.291-2.445,5.291h59.473
						L522.5,62.76v-5.123l2.41-0.176c0.422-3.189,2.842-5.754,5.963-6.38C527.92,50.291,525.791,50.39,525.791,50.39z"/>
				</g>
			</g>
		</g>
		<path opacity="0.4" fill="#B3B3B3" enable-background="new    " d="M522.158,58.54H466.63c-0.053,2.101-0.98,3.793-2.436,5.25
			h59.473l-1.509-1.028V58.54z"/>
	</g>
	<g>
		<path fill="#1D1D1B" d="M464.833,91l0.517-5.896c0.073-0.879,0.313-1.514,0.721-1.902s0.922-0.583,1.546-0.583
			c0.667,0,1.196,0.203,1.589,0.61s0.644,0.963,0.754,1.666l0.648,4.104c0.015,0.088,0.039,0.154,0.072,0.197
			c0.032,0.045,0.086,0.066,0.159,0.066s0.128-0.025,0.165-0.076c0.036-0.052,0.059-0.121,0.065-0.209l0.628-4.093
			c0.103-0.696,0.35-1.248,0.742-1.655s0.918-0.61,1.578-0.61c0.697,0,1.216,0.196,1.557,0.589s0.548,1.024,0.622,1.896L476.713,91
			h-2.123l-0.44-6.215c-0.007-0.073-0.02-0.136-0.038-0.188c-0.019-0.051-0.064-0.076-0.138-0.076c-0.059,0-0.106,0.023-0.143,0.07
			c-0.037,0.049-0.059,0.105-0.066,0.172l-0.737,4.41c-0.095,0.587-0.331,1.061-0.709,1.419c-0.378,0.359-0.875,0.539-1.49,0.539
			c-0.639,0-1.148-0.185-1.529-0.556c-0.382-0.37-0.62-0.842-0.715-1.413l-0.771-4.39c-0.015-0.08-0.04-0.143-0.076-0.187
			c-0.037-0.044-0.085-0.065-0.144-0.065c-0.073,0-0.123,0.025-0.148,0.076c-0.025,0.052-0.042,0.117-0.05,0.198L466.956,91H464.833
			z"/>
		<path fill="#1D1D1B" d="M484.644,89.186V91h-3.189c-0.653,0-1.229-0.082-1.728-0.248c-0.499-0.164-0.913-0.398-1.243-0.703
			s-0.579-0.675-0.748-1.111c-0.168-0.436-0.253-0.922-0.253-1.457V86.27c0-0.535,0.085-1.021,0.253-1.457
			c0.169-0.436,0.418-0.807,0.748-1.111s0.744-0.539,1.243-0.703c0.499-0.166,1.074-0.248,1.728-0.248h3.135v1.814h-3.025
			c-0.682,0-1.147,0.135-1.396,0.402c-0.25,0.268-0.374,0.709-0.374,1.325v1.166c0,0.616,0.128,1.058,0.385,1.325
			s0.737,0.402,1.441,0.402h3.023V89.186z"/>
		<path fill="#1D1D1B" d="M488.328,91v-8.25h2.2v6.436h4.191V91H488.328z"/>
		<path fill="#1D1D1B" d="M502.496,91l-0.648-1.727h-3.861L497.326,91h-2.222l2.739-6.654c0.213-0.521,0.475-0.939,0.786-1.255
			s0.743-0.473,1.293-0.473c0.571,0,1.021,0.155,1.348,0.468c0.326,0.312,0.592,0.724,0.797,1.237L504.784,91H502.496z
			 M499.735,84.741l-1.089,2.827h2.552l-1.066-2.827c-0.022-0.052-0.046-0.097-0.071-0.138c-0.026-0.04-0.068-0.061-0.127-0.061
			c-0.052,0-0.092,0.019-0.121,0.055C499.783,84.635,499.758,84.683,499.735,84.741z"/>
		<path fill="#1D1D1B" d="M513.475,91h-2.464l-2.189-2.52c-0.183-0.212-0.312-0.421-0.385-0.627c-0.073-0.205-0.11-0.389-0.11-0.549
			c0-0.359,0.11-0.633,0.33-0.82c0.221-0.188,0.518-0.28,0.892-0.28h1.089c0.242,0,0.422-0.067,0.539-0.204
			c0.117-0.135,0.176-0.306,0.176-0.512v-0.362c0-0.22-0.057-0.389-0.171-0.506c-0.113-0.117-0.302-0.177-0.566-0.177h-2.859V91
			h-2.2v-8.25h4.84c1.063,0,1.848,0.176,2.354,0.527c0.506,0.353,0.759,0.921,0.759,1.705v0.474c0,0.345-0.07,0.651-0.209,0.919
			c-0.14,0.268-0.325,0.492-0.556,0.676c-0.231,0.184-0.503,0.324-0.814,0.424s-0.64,0.148-0.984,0.148h-0.264L513.475,91z"/>
		<path fill="#1D1D1B" d="M514.442,91v-8.25h6.886v1.814h-4.741v1.431h4.741v1.76h-4.741v1.431h4.741V91H514.442z"/>
		<path fill="#1D1D1B" d="M522.67,91v-6.05c0-0.374,0.063-0.708,0.188-1.001c0.124-0.293,0.288-0.537,0.489-0.732
			c0.202-0.193,0.44-0.342,0.715-0.445c0.275-0.102,0.56-0.153,0.853-0.153c0.704,0,1.256,0.188,1.655,0.566
			c0.4,0.378,0.725,0.874,0.974,1.49l1.793,4.378c0.022,0.052,0.046,0.102,0.072,0.148c0.025,0.049,0.067,0.072,0.126,0.072
			c0.073,0,0.123-0.021,0.148-0.061c0.025-0.041,0.039-0.098,0.039-0.171V82.75h2.199v6.061c0,0.389-0.062,0.73-0.187,1.023
			s-0.288,0.537-0.489,0.731c-0.202,0.194-0.44,0.339-0.715,0.435s-0.56,0.143-0.853,0.143c-0.704,0-1.253-0.183-1.645-0.55
			c-0.393-0.366-0.721-0.868-0.985-1.507l-1.793-4.378c-0.021-0.052-0.046-0.101-0.071-0.148s-0.067-0.071-0.126-0.071
			c-0.073,0-0.123,0.02-0.148,0.061c-0.026,0.04-0.039,0.098-0.039,0.17V91H522.67z"/>
		<path fill="#1D1D1B" d="M486.52,104.2l-0.946-2.222h-4.62l-0.946,2.222h-1.353l3.113-7.04c0.176-0.396,0.364-0.721,0.566-0.974
			c0.201-0.253,0.515-0.38,0.94-0.38c0.418,0,0.731,0.121,0.94,0.363s0.387,0.532,0.533,0.869l3.146,7.161L486.52,104.2
			L486.52,104.2z M482.934,97.314l-1.485,3.498h3.63l-1.485-3.487c-0.051-0.132-0.103-0.222-0.153-0.27
			c-0.052-0.048-0.11-0.071-0.176-0.071s-0.123,0.02-0.171,0.061C483.045,97.085,482.992,97.175,482.934,97.314z"/>
		<path fill="#1D1D1B" d="M488.499,104.2l1.265-6.931c0.089-0.483,0.242-0.848,0.463-1.094c0.22-0.246,0.539-0.369,0.957-0.369
			c0.462,0,0.805,0.148,1.028,0.446c0.224,0.297,0.387,0.665,0.489,1.105l1.342,5.665c0.022,0.096,0.046,0.17,0.071,0.225
			c0.026,0.056,0.068,0.083,0.127,0.083c0.066,0,0.11-0.025,0.132-0.077c0.022-0.051,0.044-0.125,0.066-0.22l1.363-5.676
			c0.103-0.44,0.275-0.809,0.518-1.105c0.242-0.298,0.579-0.446,1.012-0.446c0.455,0,0.794,0.123,1.018,0.369s0.38,0.61,0.468,1.094
			l1.243,6.931h-1.343l-1.144-6.985c-0.015-0.109-0.04-0.187-0.077-0.23s-0.084-0.066-0.143-0.066c-0.066,0-0.121,0.022-0.165,0.066
			s-0.081,0.125-0.11,0.242l-1.342,5.654c-0.11,0.469-0.273,0.83-0.489,1.083c-0.217,0.253-0.553,0.38-1.007,0.38
			c-0.47,0-0.807-0.139-1.012-0.413c-0.206-0.274-0.356-0.61-0.451-1.007l-1.331-5.687c-0.029-0.124-0.063-0.209-0.099-0.253
			c-0.037-0.044-0.089-0.066-0.154-0.066c-0.059,0-0.11,0.022-0.154,0.066s-0.073,0.121-0.088,0.23l-1.166,6.985h-1.287V104.2z"/>
		<path fill="#1D1D1B" d="M505.274,95.95c0.975,0,1.727,0.142,2.255,0.423c0.527,0.283,0.792,0.828,0.792,1.635v0.385
			c0,0.352-0.088,0.669-0.265,0.951c-0.176,0.282-0.502,0.5-0.979,0.654c0.527,0.169,0.901,0.411,1.122,0.727
			c0.22,0.314,0.33,0.652,0.33,1.012v0.406c0,0.808-0.27,1.352-0.809,1.635c-0.539,0.281-1.326,0.423-2.359,0.423h-3.817v-8.25
			L505.274,95.95L505.274,95.95z M505.703,97.051h-2.894v2.485h2.871c0.484,0,0.825-0.086,1.023-0.259
			c0.198-0.172,0.297-0.43,0.297-0.775v-0.517c0-0.315-0.101-0.55-0.303-0.704C506.497,97.127,506.165,97.051,505.703,97.051z
			 M505.89,100.637h-3.08v2.463h3.092c0.498,0,0.841-0.078,1.028-0.236c0.187-0.157,0.28-0.394,0.28-0.709v-0.518
			c0-0.293-0.094-0.533-0.28-0.721C506.742,100.729,506.396,100.637,505.89,100.637z"/>
		<path fill="#1D1D1B" d="M517,104.2l-0.946-2.222h-4.619l-0.946,2.222h-1.354l3.113-7.04c0.176-0.396,0.365-0.721,0.566-0.974
			c0.202-0.253,0.516-0.38,0.94-0.38c0.418,0,0.731,0.121,0.94,0.363s0.387,0.532,0.534,0.869l3.146,7.161L517,104.2L517,104.2z
			 M513.414,97.314l-1.485,3.498h3.631l-1.485-3.487c-0.052-0.132-0.103-0.222-0.154-0.27c-0.051-0.048-0.109-0.071-0.176-0.071
			s-0.123,0.02-0.171,0.061C513.525,97.085,513.473,97.175,513.414,97.314z"/>
	</g>
</g>
<g>
	<g>
		<circle cx="602.802" cy="58.45" r="6.761"/>
		<circle cx="676.029" cy="58.45" r="6.761"/>
		<path fill="none" d="M676.222,51.605c0.944,0.337,1.938,0.763,2.952,1.312l1.726,0.716
			C679.699,52.42,678.048,51.657,676.222,51.605z"/>
		<path fill="none" d="M600.69,51.932l0.341,0.831l2.859-1.072c-0.356-0.057-0.717-0.095-1.089-0.095
			C602.065,51.596,601.356,51.716,600.69,51.932z"/>
		<g>
			<g>
				<g>
					<path fill="#00D2BE" d="M591.034,45.5c0,2-3.166,1.126-3.166,1.126l3.249,8.874H589.5v2h3.867l1.99,1.995
						c-0.042-0.322-0.071-0.679-0.071-1.012c0-3.318,2.164-6.138,5.153-7.132l-2.402-5.851C598.037,45.5,590.868,45.5,591.034,45.5z
						"/>
				</g>
				<g>
					<path fill="#00D2BE" d="M693.086,58.5l-10.884-4.422c0.844,1.215,1.342,2.736,1.342,4.324c0,0.447-0.047,0.907-0.122,1.333
						l1.322,0.078l2.988,3.068l8.767,0.131V58.5H693.086z"/>
				</g>
				<g>
					<path fill="#00D2BE" d="M669.469,50.39l-7.841,0.073l-0.781-0.963H657.5v0.953l-11.522,0.061l-2.479-1.917
						c0,0-4.822-0.168-5.822-0.501s-0.911-1.669,0.755-1.835c0.845-0.085,0.669-2.338,0.169-2.838s-4.081-0.261-6.747-0.261
						s-9.163,1.478-9.163,1.478l-17.674,6.627c3.066,0.948,5.301,3.567,5.301,6.941c0,2.19-0.947,4.291-2.446,5.291h59.473
						l-1.844-0.739v-5.123l2.749-0.176c0.422-3.189,3.012-5.754,6.133-6.38C671.429,50.291,669.469,50.39,669.469,50.39z"/>
				</g>
			</g>
		</g>
		<path opacity="0.4" fill="#B3B3B3" enable-background="new    " d="M665.835,58.54h-55.528c-0.053,2.101-0.98,3.793-2.436,5.25
			h59.473l-1.509-1.028L665.835,58.54L665.835,58.54z"/>
	</g>
	<g>
		<path fill="#1D1D1B" d="M606.679,93l0.517-5.896c0.073-0.879,0.313-1.514,0.721-1.902s0.922-0.583,1.546-0.583
			c0.667,0,1.196,0.203,1.589,0.61s0.644,0.963,0.754,1.666l0.648,4.104c0.015,0.088,0.039,0.154,0.072,0.197
			c0.032,0.045,0.086,0.066,0.159,0.066s0.128-0.025,0.165-0.076c0.036-0.052,0.059-0.121,0.065-0.209l0.628-4.093
			c0.103-0.696,0.35-1.248,0.742-1.655s0.918-0.61,1.578-0.61c0.697,0,1.216,0.196,1.557,0.589s0.548,1.024,0.622,1.896L618.559,93
			h-2.123l-0.44-6.215c-0.007-0.073-0.02-0.136-0.038-0.188c-0.019-0.051-0.064-0.076-0.138-0.076c-0.059,0-0.106,0.023-0.143,0.07
			c-0.037,0.049-0.059,0.105-0.066,0.172l-0.737,4.41c-0.095,0.587-0.331,1.061-0.709,1.419c-0.378,0.359-0.875,0.539-1.49,0.539
			c-0.639,0-1.148-0.185-1.529-0.556c-0.382-0.37-0.62-0.842-0.715-1.413l-0.771-4.39c-0.015-0.08-0.04-0.143-0.076-0.187
			c-0.037-0.044-0.085-0.065-0.144-0.065c-0.073,0-0.123,0.025-0.148,0.076c-0.025,0.052-0.042,0.117-0.05,0.198L608.802,93H606.679
			z"/>
		<path fill="#1D1D1B" d="M619.713,93v-8.25h6.887v1.814h-4.741v1.431h4.741v1.76h-4.741v1.431h4.741V93H619.713z"/>
		<path fill="#1D1D1B" d="M635.861,93h-2.464l-2.189-2.52c-0.183-0.212-0.312-0.421-0.385-0.627c-0.073-0.205-0.11-0.389-0.11-0.549
			c0-0.359,0.11-0.633,0.33-0.82c0.221-0.188,0.518-0.28,0.892-0.28h1.089c0.242,0,0.422-0.067,0.539-0.204
			c0.117-0.135,0.176-0.306,0.176-0.512v-0.362c0-0.22-0.057-0.389-0.171-0.506c-0.113-0.117-0.302-0.177-0.566-0.177h-2.859V93
			h-2.2v-8.25h4.84c1.063,0,1.848,0.176,2.354,0.527c0.506,0.353,0.759,0.921,0.759,1.705v0.474c0,0.345-0.07,0.651-0.209,0.919
			c-0.14,0.268-0.325,0.492-0.556,0.676c-0.231,0.184-0.503,0.324-0.814,0.424s-0.64,0.148-0.984,0.148h-0.264L635.861,93z"/>
		<path fill="#1D1D1B" d="M643.605,91.186V93h-3.19c-0.652,0-1.229-0.082-1.727-0.248c-0.499-0.164-0.913-0.398-1.243-0.703
			s-0.579-0.675-0.748-1.111s-0.253-0.922-0.253-1.457V88.27c0-0.535,0.084-1.021,0.253-1.457s0.418-0.807,0.748-1.111
			c0.33-0.304,0.744-0.539,1.243-0.703c0.498-0.166,1.074-0.248,1.727-0.248h3.135v1.814h-3.024c-0.683,0-1.148,0.135-1.397,0.402
			s-0.374,0.709-0.374,1.325v1.166c0,0.616,0.129,1.058,0.385,1.325c0.257,0.268,0.737,0.402,1.441,0.402h3.024V91.186z"/>
		<path fill="#1D1D1B" d="M644.65,93v-8.25h6.886v1.814h-4.741v1.431h4.741v1.76h-4.741v1.431h4.741V93H644.65z"/>
		<path fill="#1D1D1B" d="M657.157,84.75c0.652,0,1.227,0.082,1.721,0.248c0.495,0.164,0.904,0.399,1.227,0.703
			c0.323,0.305,0.565,0.676,0.727,1.111c0.161,0.437,0.242,0.922,0.242,1.457v1.211c0,0.535-0.081,1.021-0.242,1.457
			c-0.161,0.437-0.403,0.807-0.727,1.111c-0.322,0.305-0.731,0.539-1.227,0.703C658.384,92.918,657.81,93,657.157,93h-4.279v-8.25
			H657.157z M657.014,86.488h-1.936v4.773h1.881c0.726,0,1.208-0.135,1.446-0.406s0.357-0.737,0.357-1.397v-1.177
			c0-0.66-0.117-1.124-0.352-1.392C658.176,86.622,657.711,86.488,657.014,86.488z"/>
		<path fill="#1D1D1B" d="M662.228,93v-8.25h6.887v1.814h-4.741v1.431h4.741v1.76h-4.741v1.431h4.741V93H662.228z"/>
		<path fill="#1D1D1B" d="M674.515,89.932l-1.979-0.584c-0.763-0.227-1.327-0.539-1.694-0.935c-0.366-0.396-0.55-0.869-0.55-1.419
			c0-0.689,0.242-1.236,0.726-1.639c0.484-0.404,1.166-0.605,2.046-0.605h4.235v1.814h-4.246c-0.234,0-0.399,0.043-0.495,0.127
			c-0.095,0.084-0.143,0.178-0.143,0.281c0,0.131,0.046,0.24,0.138,0.324s0.24,0.155,0.445,0.215l2.013,0.582
			c0.851,0.25,1.49,0.556,1.92,0.919c0.429,0.362,0.644,0.87,0.644,1.523c0,0.337-0.064,0.656-0.192,0.957
			c-0.129,0.301-0.323,0.562-0.583,0.78c-0.261,0.221-0.591,0.396-0.99,0.528c-0.4,0.132-0.867,0.198-1.402,0.198h-3.895v-1.814
			h4.225c0.278,0,0.473-0.056,0.583-0.166c0.109-0.109,0.165-0.238,0.165-0.385c0-0.176-0.068-0.31-0.204-0.401
			C675.144,90.143,674.889,90.041,674.515,89.932z"/>
		<path fill="#1D1D1B" d="M616.084,106.2v-8.25h1.265v7.149h4.906v1.101H616.084z"/>
		<path fill="#1D1D1B" d="M623.574,106.2v-8.25h1.266v8.25H623.574z"/>
		<path fill="#1D1D1B" d="M629.404,106.2v-7.149h-3.3V97.95h7.864v1.101h-3.3v7.149H629.404z"/>
		<path fill="#1D1D1B" d="M642.879,102.735c0,0.542-0.071,1.036-0.214,1.479c-0.144,0.443-0.361,0.821-0.654,1.133
			c-0.294,0.313-0.67,0.554-1.128,0.727c-0.458,0.172-1.003,0.258-1.634,0.258h-1.1c-0.631,0-1.177-0.086-1.639-0.258
			c-0.463-0.173-0.84-0.414-1.134-0.727c-0.293-0.312-0.51-0.689-0.648-1.133c-0.14-0.443-0.209-0.938-0.209-1.479v-1.32
			c0-0.55,0.069-1.046,0.209-1.49c0.139-0.444,0.355-0.823,0.648-1.139c0.294-0.315,0.671-0.558,1.134-0.726
			c0.462-0.169,1.008-0.254,1.639-0.254h1.1c0.631,0,1.176,0.085,1.634,0.254c0.458,0.168,0.834,0.41,1.128,0.726
			c0.293,0.315,0.511,0.694,0.654,1.139c0.143,0.444,0.214,0.94,0.214,1.49V102.735z M635.895,103.032
			c0,0.733,0.161,1.283,0.483,1.649c0.323,0.367,0.858,0.551,1.606,0.551h1.43c0.756,0,1.293-0.184,1.611-0.551
			c0.319-0.366,0.479-0.916,0.479-1.649v-1.925c0-0.74-0.159-1.293-0.479-1.656c-0.318-0.362-0.855-0.544-1.611-0.544h-1.43
			c-0.748,0-1.283,0.182-1.606,0.544c-0.322,0.363-0.483,0.916-0.483,1.656V103.032z"/>
		<path fill="#1D1D1B" d="M651.624,106.2h-1.54l-3.256-3.53c-0.11-0.118-0.186-0.25-0.226-0.396s-0.042-0.282-0.006-0.407
			c0.037-0.117,0.116-0.218,0.237-0.303c0.121-0.084,0.272-0.126,0.456-0.126h1.903c0.477,0,0.809-0.074,0.995-0.221
			c0.188-0.146,0.28-0.418,0.28-0.813v-0.341c0-0.396-0.093-0.664-0.28-0.803c-0.187-0.14-0.519-0.209-0.995-0.209h-3.454v7.149
			h-1.265v-8.25h4.443c0.403,0,0.779,0.033,1.128,0.099c0.348,0.066,0.65,0.18,0.907,0.342c0.257,0.161,0.456,0.379,0.6,0.654
			c0.143,0.275,0.215,0.621,0.215,1.039v0.297c0,0.836-0.255,1.4-0.765,1.694s-1.224,0.44-2.14,0.44h-0.539L651.624,106.2z"/>
		<path fill="#1D1D1B" d="M660.292,106.2l-0.946-2.222h-4.619l-0.946,2.222h-1.354l3.113-7.04c0.176-0.396,0.365-0.721,0.566-0.974
			c0.202-0.253,0.516-0.38,0.94-0.38c0.418,0,0.731,0.121,0.94,0.363s0.387,0.532,0.534,0.869l3.146,7.161L660.292,106.2
			L660.292,106.2z M656.706,99.314l-1.485,3.498h3.631l-1.485-3.487c-0.052-0.132-0.103-0.222-0.154-0.27
			c-0.051-0.048-0.109-0.071-0.176-0.071s-0.123,0.02-0.171,0.061C656.817,99.085,656.765,99.175,656.706,99.314z"/>
		<path fill="#1D1D1B" d="M662.768,106.2v-8.25h1.265v7.149h4.906v1.101H662.768z"/>
	</g>
</g>
<g>
	<g>
		<circle cx="746.778" cy="58.45" r="6.761"/>
		<circle cx="820.006" cy="58.45" r="6.761"/>
		<path fill="none" d="M820.199,51.605c0.944,0.337,1.938,0.763,2.952,1.312l1.726,0.716
			C823.676,52.42,822.025,51.657,820.199,51.605z"/>
		<path fill="none" d="M744.667,51.932l0.341,0.831l2.859-1.072c-0.356-0.057-0.718-0.095-1.089-0.095
			C746.042,51.596,745.333,51.716,744.667,51.932z"/>
		<g>
			<g>
				<g>
					<path fill="#0600EF" d="M735.011,45.5c0,2-3.166,1.126-3.166,1.126l3.249,8.874H733.5v2h3.844l1.99,1.995
						c-0.042-0.322-0.071-0.679-0.071-1.012c0-3.318,2.164-6.138,5.153-7.132l-2.402-5.851C742.014,45.5,734.845,45.5,735.011,45.5z
						"/>
				</g>
				<g>
					<path fill="#0600EF" d="M837.063,58.5l-10.884-4.422c0.844,1.215,1.342,2.736,1.342,4.324c0,0.447-0.047,0.907-0.122,1.333
						l1.322,0.078l2.999,3.068l8.779,0.131V58.5H837.063z"/>
				</g>
				<g>
					<path fill="#0600EF" d="M813.445,50.39l-7.841,0.073l-0.781-0.963H801.5v0.953l-11.534,0.061l-2.485-1.917
						c0,0-4.825-0.168-5.825-0.501s-0.913-1.669,0.753-1.835c0.845-0.085,0.668-2.338,0.168-2.838s-4.081-0.261-6.747-0.261
						s-9.163,1.478-9.163,1.478l-17.674,6.627c3.066,0.948,5.301,3.567,5.301,6.941c0,2.19-0.947,4.291-2.446,5.291h59.473
						L809.5,62.76v-5.123l2.737-0.176c0.422-3.189,3.006-5.754,6.127-6.38C815.411,50.291,813.445,50.39,813.445,50.39z"/>
				</g>
			</g>
		</g>
		<path opacity="0.4" fill="#B3B3B3" enable-background="new    " d="M809.562,58.54h-55.528c-0.053,2.101-0.98,3.793-2.436,5.25
			h59.473l-1.509-1.028L809.562,58.54L809.562,58.54z"/>
	</g>
	<g>
		<path fill="#1D1D1B" d="M763.995,93h-2.464l-2.188-2.52c-0.184-0.212-0.312-0.421-0.385-0.627c-0.074-0.205-0.11-0.389-0.11-0.549
			c0-0.359,0.11-0.633,0.33-0.82s0.517-0.28,0.891-0.28h1.089c0.242,0,0.422-0.067,0.539-0.204c0.117-0.135,0.177-0.306,0.177-0.512
			v-0.362c0-0.22-0.058-0.389-0.171-0.506c-0.114-0.117-0.303-0.177-0.566-0.177h-2.86V93h-2.2v-8.25h4.841
			c1.063,0,1.848,0.176,2.354,0.527c0.506,0.353,0.759,0.921,0.759,1.705v0.474c0,0.345-0.069,0.651-0.209,0.919
			c-0.139,0.268-0.324,0.492-0.556,0.676c-0.23,0.184-0.502,0.324-0.813,0.424s-0.64,0.148-0.984,0.148h-0.265L763.995,93z"/>
		<path fill="#1D1D1B" d="M764.964,93v-8.25h6.886v1.814h-4.741v1.431h4.741v1.76h-4.741v1.431h4.741V93H764.964z"/>
		<path fill="#1D1D1B" d="M777.471,84.75c0.652,0,1.227,0.082,1.721,0.248c0.495,0.164,0.904,0.399,1.227,0.703
			c0.323,0.305,0.565,0.676,0.727,1.111c0.161,0.437,0.242,0.922,0.242,1.457v1.211c0,0.535-0.081,1.021-0.242,1.457
			c-0.161,0.437-0.403,0.807-0.727,1.111c-0.322,0.305-0.731,0.539-1.227,0.703c-0.494,0.166-1.068,0.248-1.721,0.248h-4.279v-8.25
			L777.471,84.75L777.471,84.75z M777.327,86.488h-1.936v4.773h1.881c0.726,0,1.208-0.135,1.446-0.406s0.357-0.737,0.357-1.397
			v-1.177c0-0.66-0.117-1.124-0.352-1.392C778.489,86.622,778.024,86.488,777.327,86.488z"/>
		<path fill="#1D1D1B" d="M789.196,84.75c0.571,0,1.078,0.031,1.518,0.094s0.805,0.17,1.095,0.324s0.51,0.363,0.66,0.627
			s0.226,0.602,0.226,1.012v0.363c0,0.338-0.096,0.65-0.286,0.94c-0.191,0.29-0.539,0.516-1.045,0.677
			c0.557,0.161,0.953,0.391,1.188,0.688c0.235,0.297,0.353,0.621,0.353,0.974v0.385c0,0.777-0.271,1.333-0.814,1.667
			s-1.463,0.5-2.761,0.5h-4.147v-8.25h4.013V84.75z M789.35,86.313h-1.969v1.693h1.914c0.47,0,0.777-0.055,0.924-0.165
			s0.221-0.29,0.221-0.539v-0.253c0-0.249-0.072-0.435-0.215-0.555C790.082,86.373,789.79,86.313,789.35,86.313z M789.559,89.634
			h-2.178v1.804h2.123c0.484,0,0.796-0.062,0.936-0.187c0.139-0.124,0.209-0.312,0.209-0.562v-0.264
			c0-0.249-0.068-0.443-0.204-0.583S790.014,89.634,789.559,89.634z"/>
		<path fill="#1D1D1B" d="M797.325,93.143c-1.232,0-2.112-0.274-2.64-0.824c-0.528-0.551-0.792-1.316-0.792-2.299v-5.27h2.199v5.479
			c0,0.396,0.09,0.688,0.27,0.874s0.49,0.28,0.93,0.28h1.254c0.411,0,0.71-0.094,0.896-0.28c0.188-0.187,0.281-0.479,0.281-0.874
			V84.75h2.199v5.27c0,0.49-0.057,0.931-0.17,1.319c-0.114,0.389-0.301,0.717-0.562,0.985c-0.26,0.268-0.61,0.471-1.05,0.609
			c-0.44,0.14-0.983,0.209-1.629,0.209L797.325,93.143L797.325,93.143z"/>
		<path fill="#1D1D1B" d="M803.298,93v-8.25h2.2v6.436h4.191V93H803.298z"/>
		<path fill="#1D1D1B" d="M810.733,93v-8.25h2.2v6.436h4.191V93H810.733z"/>
		<path fill="#1D1D1B" d="M772.658,106.2v-6.71c0-0.469,0.117-0.867,0.352-1.193c0.235-0.326,0.624-0.49,1.166-0.49
			c0.382,0,0.697,0.11,0.946,0.33c0.249,0.221,0.502,0.539,0.759,0.957l3.521,5.688c0.065,0.103,0.132,0.188,0.198,0.253
			c0.065,0.065,0.132,0.099,0.197,0.099c0.088,0,0.158-0.031,0.209-0.094c0.052-0.062,0.077-0.151,0.077-0.27v-6.82h1.266v6.787
			c0,0.483-0.123,0.872-0.369,1.166c-0.245,0.294-0.606,0.44-1.083,0.44c-0.403,0-0.729-0.107-0.974-0.319
			c-0.246-0.213-0.479-0.495-0.698-0.847l-3.598-5.775c-0.073-0.117-0.136-0.211-0.187-0.281c-0.052-0.068-0.121-0.104-0.209-0.104
			c-0.11,0-0.189,0.037-0.236,0.109c-0.048,0.074-0.072,0.173-0.072,0.297v6.776L772.658,106.2L772.658,106.2z"/>
		<path fill="#1D1D1B" d="M791.303,102.735c0,0.542-0.071,1.036-0.214,1.479c-0.144,0.443-0.361,0.821-0.654,1.133
			c-0.294,0.313-0.67,0.554-1.128,0.727c-0.458,0.172-1.003,0.258-1.634,0.258h-1.1c-0.631,0-1.177-0.086-1.639-0.258
			c-0.463-0.173-0.84-0.414-1.134-0.727c-0.293-0.312-0.51-0.689-0.648-1.133c-0.14-0.443-0.209-0.938-0.209-1.479v-1.32
			c0-0.55,0.069-1.046,0.209-1.49c0.139-0.444,0.355-0.823,0.648-1.139c0.294-0.315,0.671-0.558,1.134-0.726
			c0.462-0.169,1.008-0.254,1.639-0.254h1.1c0.631,0,1.176,0.085,1.634,0.254c0.458,0.168,0.834,0.41,1.128,0.726
			c0.293,0.315,0.511,0.694,0.654,1.139c0.143,0.444,0.214,0.94,0.214,1.49V102.735z M784.318,103.032
			c0,0.733,0.161,1.283,0.483,1.649c0.323,0.367,0.858,0.551,1.606,0.551h1.43c0.756,0,1.293-0.184,1.611-0.551
			c0.319-0.366,0.479-0.916,0.479-1.649v-1.925c0-0.74-0.159-1.293-0.479-1.656c-0.318-0.362-0.855-0.544-1.611-0.544h-1.43
			c-0.748,0-1.283,0.182-1.606,0.544c-0.322,0.363-0.483,0.916-0.483,1.656V103.032z"/>
		<path fill="#1D1D1B" d="M799.663,106.2l-0.946-2.222h-4.619l-0.946,2.222h-1.354l3.113-7.04c0.176-0.396,0.365-0.721,0.566-0.974
			c0.202-0.253,0.516-0.38,0.94-0.38c0.418,0,0.731,0.121,0.94,0.363s0.387,0.532,0.534,0.869l3.146,7.161L799.663,106.2
			L799.663,106.2z M796.077,99.314l-1.485,3.498h3.631l-1.485-3.487c-0.052-0.132-0.103-0.222-0.154-0.27
			c-0.051-0.048-0.109-0.071-0.176-0.071s-0.123,0.02-0.171,0.061C796.188,99.085,796.136,99.175,796.077,99.314z"/>
	</g>
</g>
<g>
	<g>
		<circle cx="890.454" cy="58.45" r="6.761"/>
		<circle cx="963.681" cy="58.45" r="6.761"/>
		<path fill="none" d="M883.862,60.565c0.812,2.879,3.457,5.128,6.593,5.128c1.507,0,2.897-0.193,4.03-1.193h-2.218L883.862,60.565z
			"/>
		<path fill="none" d="M963.875,51.605c0.944,0.337,1.938,0.763,2.952,1.312l1.726,0.716
			C967.351,52.42,965.701,51.657,963.875,51.605z"/>
		<path fill="none" d="M888.343,51.932l0.341,0.831l2.859-1.072c-0.356-0.057-0.717-0.095-1.089-0.095
			C889.717,51.596,889.008,51.716,888.343,51.932z"/>
		<g>
			<g>
				<g>
					<path fill="#FFF500" d="M878.687,45.5c0,2-3.166,1.126-3.166,1.126l3.249,8.874h-2.27v2h4.519l1.99,1.995
						c-0.042-0.322-0.071-0.679-0.071-1.012c0-3.318,2.164-6.138,5.153-7.132L885.69,45.5C885.69,45.5,878.52,45.5,878.687,45.5z"/>
				</g>
				<g>
					<path fill="#FFF500" d="M980.739,58.5l-10.884-4.422c0.844,1.215,1.342,2.736,1.342,4.324c0,0.447-0.047,0.907-0.122,1.333
						l1.322,0.078l3.161,3.068l8.941,0.131V58.5H980.739z"/>
				</g>
				<g>
					<path fill="#FFF500" d="M957.121,50.39l-7.841,0.073l-0.781-0.963H945.5v0.953l-11.696,0.061l-2.566-1.917
						c0,0-4.865-0.168-5.865-0.501s-0.933-1.669,0.733-1.835c0.845-0.085,0.658-2.338,0.158-2.838s-4.086-0.261-6.752-0.261
						s-9.166,1.478-9.166,1.478l-17.676,6.627c3.066,0.948,5.3,3.567,5.3,6.941c0,2.19-0.948,4.291-2.447,5.291h59.473l-1.497-0.739
						v-5.123l2.575-0.176c0.422-3.189,2.925-5.754,6.046-6.38C959.168,50.291,957.121,50.39,957.121,50.39z"/>
				</g>
			</g>
		</g>
		<path opacity="0.4" fill="#B3B3B3" enable-background="new    " d="M953.738,58.54H898.21c-0.053,2.101-0.98,3.793-2.436,5.25
			h59.473l-1.509-1.028L953.738,58.54L953.738,58.54z"/>
	</g>
	<g>
		<path fill="#1D1D1B" d="M908.529,93h-2.464l-2.188-2.52c-0.184-0.212-0.312-0.421-0.385-0.627c-0.074-0.205-0.11-0.389-0.11-0.549
			c0-0.359,0.11-0.633,0.33-0.82s0.517-0.28,0.891-0.28h1.089c0.242,0,0.422-0.067,0.539-0.204c0.117-0.135,0.177-0.306,0.177-0.512
			v-0.362c0-0.22-0.058-0.389-0.171-0.506c-0.114-0.117-0.303-0.177-0.566-0.177h-2.86V93h-2.2v-8.25h4.841
			c1.063,0,1.848,0.176,2.354,0.527c0.506,0.353,0.759,0.921,0.759,1.705v0.474c0,0.345-0.069,0.651-0.209,0.919
			c-0.139,0.268-0.324,0.492-0.556,0.676c-0.23,0.184-0.502,0.324-0.813,0.424s-0.64,0.148-0.984,0.148h-0.265L908.529,93z"/>
		<path fill="#1D1D1B" d="M909.498,93v-8.25h6.886v1.814h-4.741v1.431h4.741v1.76h-4.741v1.431h4.741V93H909.498z"/>
		<path fill="#1D1D1B" d="M917.726,93v-6.05c0-0.374,0.063-0.708,0.187-1.001c0.125-0.293,0.288-0.537,0.49-0.732
			c0.201-0.193,0.439-0.342,0.715-0.445c0.274-0.102,0.559-0.153,0.853-0.153c0.704,0,1.256,0.188,1.655,0.566
			s0.724,0.874,0.974,1.49l1.793,4.378c0.021,0.052,0.046,0.102,0.071,0.148c0.025,0.049,0.067,0.072,0.127,0.072
			c0.073,0,0.122-0.021,0.148-0.061c0.025-0.041,0.038-0.098,0.038-0.171V84.75h2.2v6.061c0,0.389-0.063,0.73-0.188,1.023
			c-0.124,0.293-0.287,0.537-0.489,0.731c-0.201,0.194-0.439,0.339-0.715,0.435s-0.56,0.143-0.853,0.143
			c-0.704,0-1.252-0.183-1.645-0.55c-0.393-0.366-0.721-0.868-0.984-1.507l-1.793-4.378c-0.022-0.052-0.046-0.101-0.071-0.148
			c-0.026-0.048-0.068-0.071-0.127-0.071c-0.073,0-0.123,0.02-0.148,0.061c-0.025,0.04-0.038,0.098-0.038,0.17V93H917.726z"/>
		<path fill="#1D1D1B" d="M934.809,93l-0.649-1.727h-3.86L929.639,93h-2.222l2.738-6.654c0.213-0.521,0.475-0.939,0.787-1.255
			c0.312-0.315,0.742-0.473,1.292-0.473c0.572,0,1.021,0.155,1.348,0.468c0.326,0.312,0.592,0.724,0.798,1.237L937.097,93H934.809z
			 M932.048,86.741l-1.089,2.827h2.552l-1.067-2.827c-0.021-0.052-0.046-0.097-0.071-0.138c-0.025-0.04-0.068-0.061-0.127-0.061
			c-0.051,0-0.092,0.019-0.12,0.055C932.095,86.635,932.069,86.683,932.048,86.741z"/>
		<path fill="#1D1D1B" d="M940.804,93.143c-1.232,0-2.112-0.274-2.64-0.824c-0.528-0.551-0.792-1.316-0.792-2.299v-5.27h2.199v5.479
			c0,0.396,0.09,0.688,0.27,0.874s0.49,0.28,0.93,0.28h1.254c0.411,0,0.71-0.094,0.896-0.28c0.188-0.187,0.281-0.479,0.281-0.874
			V84.75h2.199v5.27c0,0.49-0.057,0.931-0.17,1.319c-0.114,0.389-0.301,0.717-0.562,0.985c-0.26,0.268-0.61,0.471-1.05,0.609
			c-0.44,0.14-0.983,0.209-1.629,0.209L940.804,93.143L940.804,93.143z"/>
		<path fill="#1D1D1B" d="M946.776,93v-8.25h2.2v6.436h4.19V93H946.776z"/>
		<path fill="#1D1D1B" d="M954.378,93v-6.436h-3.136V84.75h8.471v1.814h-3.136V93H954.378z"/>
		<path fill="#1D1D1B" d="M921.554,102.813l-2.09-0.572c-0.719-0.198-1.274-0.462-1.667-0.792s-0.588-0.804-0.588-1.419
			c0-0.616,0.232-1.117,0.698-1.502s1.175-0.577,2.128-0.577h3.851v1.101h-3.993c-0.528,0-0.893,0.092-1.095,0.274
			c-0.201,0.184-0.302,0.399-0.302,0.649c0,0.285,0.093,0.51,0.28,0.67c0.187,0.162,0.529,0.313,1.028,0.451l2.09,0.595
			c0.727,0.205,1.285,0.478,1.678,0.819c0.392,0.341,0.588,0.816,0.588,1.424c0,0.683-0.229,1.23-0.688,1.645
			c-0.458,0.415-1.156,0.622-2.095,0.622h-3.949V105.1h4.07c0.483,0,0.837-0.095,1.062-0.285c0.224-0.191,0.335-0.447,0.335-0.77
			c0-0.338-0.094-0.593-0.28-0.766C922.428,103.107,922.074,102.951,921.554,102.813z"/>
		<path fill="#1D1D1B" d="M928.726,106.344c-1.071,0-1.852-0.217-2.343-0.649s-0.737-1.118-0.737-2.058V97.95h1.265v5.774
			c0,0.514,0.131,0.896,0.391,1.145c0.261,0.25,0.666,0.374,1.216,0.374h1.979c0.521,0,0.915-0.124,1.183-0.374
			c0.268-0.249,0.401-0.631,0.401-1.145V97.95h1.266v5.687c0,0.939-0.25,1.625-0.748,2.058c-0.499,0.433-1.313,0.649-2.442,0.649
			C930.157,106.344,928.726,106.344,928.726,106.344z"/>
		<path fill="#1D1D1B" d="M942.476,106.2h-1.54l-3.256-3.53c-0.11-0.118-0.186-0.25-0.226-0.396
			c-0.041-0.146-0.043-0.282-0.006-0.407c0.036-0.117,0.115-0.218,0.236-0.303c0.121-0.084,0.273-0.126,0.457-0.126h1.902
			c0.477,0,0.809-0.074,0.996-0.221c0.187-0.146,0.28-0.418,0.28-0.813v-0.341c0-0.396-0.094-0.664-0.28-0.803
			c-0.188-0.14-0.52-0.209-0.996-0.209h-3.454v7.149h-1.265v-8.25h4.444c0.403,0,0.778,0.033,1.127,0.099s0.651,0.18,0.908,0.342
			c0.256,0.161,0.456,0.379,0.599,0.654c0.144,0.275,0.215,0.621,0.215,1.039v0.297c0,0.836-0.255,1.4-0.765,1.694
			s-1.223,0.44-2.14,0.44h-0.539L942.476,106.2z"/>
	</g>
</g>
<g>
	<g>
		<circle cx="1034.419" cy="58.45" r="6.761"/>
		<circle cx="1107.647" cy="58.45" r="6.761"/>
		<path fill="none" d="M1107.84,51.605c0.944,0.337,1.938,0.763,2.952,1.312l1.726,0.716
			C1111.316,52.42,1109.666,51.657,1107.84,51.605z"/>
		<path fill="none" d="M1032.308,51.932l0.341,0.831l2.859-1.072c-0.356-0.057-0.718-0.095-1.089-0.095
			C1033.682,51.596,1032.974,51.716,1032.308,51.932z"/>
		<g>
			<g>
				<g>
					<path fill="#0082FA" d="M1022.652,45.5c0,2-3.166,1.126-3.166,1.126l3.249,8.874h-2.235v2h4.485l1.99,1.995
						c-0.042-0.322-0.072-0.679-0.072-1.012c0-3.318,2.164-6.138,5.153-7.132l-2.402-5.851
						C1029.655,45.5,1022.485,45.5,1022.652,45.5z"/>
				</g>
				<g>
					<path fill="#0082FA" d="M1124.704,58.5l-10.884-4.422c0.844,1.215,1.343,2.736,1.343,4.324c0,0.447-0.047,0.907-0.122,1.333
						l1.322,0.078l3.179,3.068l8.958,0.131V58.5H1124.704z"/>
				</g>
				<g>
					<path fill="#0082FA" d="M1101.086,50.39l-7.841,0.073l-0.781-0.963h-2.964v0.953l-11.713,0.061l-2.575-1.917
						c0,0-4.87-0.168-5.869-0.501c-1-0.333-0.935-1.669,0.731-1.835c0.845-0.085,0.657-2.338,0.157-2.838s-4.087-0.261-6.753-0.261
						s-9.166,1.478-9.166,1.478l-17.676,6.627c3.066,0.948,5.3,3.567,5.3,6.941c0,2.19-0.948,4.291-2.447,5.291h59.473l-1.462-0.739
						v-5.123l2.558-0.176c0.422-3.189,2.916-5.754,6.037-6.38C1103.142,50.291,1101.086,50.39,1101.086,50.39z"/>
				</g>
			</g>
		</g>
		<path opacity="0.4" fill="#B3B3B3" enable-background="new    " d="M1097.453,58.54h-55.528c-0.053,2.101-0.98,3.793-2.436,5.25
			h59.473l-1.509-1.028V58.54z"/>
	</g>
	<g>
		<path fill="#1D1D1B" d="M1043.16,84.75l0.945,6.281c0.008,0.073,0.029,0.136,0.066,0.187c0.036,0.052,0.092,0.077,0.165,0.077
			c0.065,0,0.115-0.023,0.148-0.071s0.053-0.104,0.061-0.171l0.704-4.169c0.117-0.682,0.357-1.229,0.72-1.645
			c0.363-0.414,0.894-0.621,1.59-0.621c0.704,0,1.216,0.209,1.534,0.627c0.319,0.418,0.537,0.96,0.655,1.628l0.704,4.169
			c0.015,0.081,0.04,0.144,0.076,0.187c0.037,0.045,0.085,0.066,0.144,0.066c0.095,0,0.159-0.025,0.192-0.077
			c0.033-0.051,0.053-0.117,0.061-0.198l0.924-6.27h2.2l-1.145,6.38c-0.117,0.646-0.346,1.137-0.688,1.474
			c-0.341,0.338-0.826,0.506-1.457,0.506c-0.704,0-1.25-0.187-1.639-0.561c-0.39-0.374-0.635-0.88-0.737-1.518l-0.715-4.334
			c-0.008-0.066-0.026-0.117-0.056-0.154s-0.073-0.055-0.132-0.055s-0.103,0.018-0.132,0.055s-0.048,0.088-0.055,0.154l-0.737,4.355
			c-0.11,0.639-0.339,1.141-0.688,1.508c-0.349,0.366-0.856,0.549-1.523,0.549c-0.704,0-1.233-0.199-1.59-0.599
			c-0.355-0.399-0.588-0.907-0.698-1.524l-1.1-6.236C1040.957,84.75,1043.16,84.75,1043.16,84.75z"/>
		<path fill="#1D1D1B" d="M1054.984,93v-8.25h2.2V93H1054.984z"/>
		<path fill="#1D1D1B" d="M1058.669,93v-8.25h2.2v6.436h4.191V93H1058.669z"/>
		<path fill="#1D1D1B" d="M1066.105,93v-8.25h2.2v6.436h4.19V93H1066.105z"/>
		<path fill="#1D1D1B" d="M1073.597,93v-8.25h2.2V93H1073.597z"/>
		<path fill="#1D1D1B" d="M1084.013,93l-0.648-1.727h-3.861l-0.66,1.727h-2.222l2.739-6.654c0.213-0.521,0.475-0.939,0.786-1.255
			s0.743-0.473,1.293-0.473c0.571,0,1.021,0.155,1.348,0.468c0.326,0.312,0.592,0.724,0.797,1.237l2.717,6.677
			C1086.302,93,1084.013,93,1084.013,93z M1081.252,86.741l-1.089,2.827h2.552l-1.066-2.827c-0.022-0.052-0.046-0.097-0.071-0.138
			c-0.026-0.04-0.068-0.061-0.127-0.061c-0.052,0-0.092,0.019-0.121,0.055C1081.3,86.635,1081.274,86.683,1081.252,86.741z"/>
		<path fill="#1D1D1B" d="M1086.796,93l0.518-5.896c0.073-0.879,0.313-1.514,0.721-1.902c0.406-0.389,0.922-0.583,1.545-0.583
			c0.667,0,1.197,0.203,1.59,0.61c0.392,0.407,0.644,0.963,0.753,1.666l0.649,4.104c0.015,0.088,0.038,0.154,0.071,0.197
			c0.033,0.045,0.086,0.066,0.159,0.066s0.129-0.025,0.165-0.076c0.037-0.052,0.059-0.121,0.066-0.209l0.627-4.093
			c0.103-0.696,0.351-1.248,0.742-1.655c0.393-0.407,0.919-0.61,1.579-0.61c0.696,0,1.215,0.196,1.557,0.589
			c0.341,0.393,0.548,1.024,0.621,1.896l0.517,5.896h-2.123l-0.439-6.215c-0.008-0.073-0.021-0.136-0.039-0.188
			c-0.018-0.051-0.063-0.076-0.137-0.076c-0.059,0-0.106,0.023-0.144,0.07c-0.036,0.049-0.059,0.105-0.065,0.172l-0.737,4.41
			c-0.096,0.587-0.332,1.061-0.71,1.419c-0.377,0.359-0.874,0.539-1.49,0.539c-0.638,0-1.147-0.185-1.529-0.556
			c-0.381-0.37-0.619-0.842-0.715-1.413l-0.77-4.39c-0.015-0.08-0.041-0.143-0.077-0.187c-0.037-0.044-0.084-0.065-0.143-0.065
			c-0.074,0-0.123,0.025-0.148,0.076c-0.026,0.052-0.043,0.117-0.05,0.198l-0.44,6.204h-2.124V93z"/>
		<path fill="#1D1D1B" d="M1103.89,89.932l-1.979-0.584c-0.763-0.227-1.327-0.539-1.694-0.935c-0.366-0.396-0.55-0.869-0.55-1.419
			c0-0.689,0.242-1.236,0.726-1.639c0.484-0.404,1.166-0.605,2.046-0.605h4.235v1.814h-4.246c-0.234,0-0.399,0.043-0.495,0.127
			c-0.095,0.084-0.143,0.178-0.143,0.281c0,0.131,0.046,0.24,0.138,0.324s0.24,0.155,0.445,0.215l2.013,0.582
			c0.851,0.25,1.49,0.556,1.92,0.919c0.429,0.362,0.644,0.87,0.644,1.523c0,0.337-0.064,0.656-0.192,0.957
			c-0.129,0.301-0.323,0.562-0.583,0.78c-0.261,0.221-0.591,0.396-0.99,0.528c-0.4,0.132-0.867,0.198-1.402,0.198h-3.895v-1.814
			h4.225c0.278,0,0.473-0.056,0.583-0.166c0.109-0.109,0.165-0.238,0.165-0.385c0-0.176-0.068-0.31-0.204-0.401
			C1104.519,90.143,1104.264,90.041,1103.89,89.932z"/>
		<path fill="#1D1D1B" d="M1064.114,105.1v1.101h-3.641c-0.646,0-1.199-0.084-1.661-0.253c-0.462-0.168-0.838-0.41-1.128-0.727
			c-0.289-0.314-0.502-0.694-0.638-1.139c-0.136-0.443-0.203-0.939-0.203-1.49v-1.033c0-0.551,0.067-1.047,0.203-1.49
			c0.136-0.444,0.349-0.824,0.638-1.139c0.29-0.316,0.666-0.558,1.128-0.727c0.462-0.168,1.016-0.253,1.661-0.253h3.586v1.101
			h-3.751c-0.763,0-1.302,0.182-1.617,0.544s-0.473,0.915-0.473,1.655v1.65c0,0.74,0.157,1.293,0.473,1.655s0.854,0.544,1.617,0.544
			L1064.114,105.1L1064.114,105.1z"/>
		<path fill="#1D1D1B" d="M1068.624,106.344c-1.07,0-1.852-0.217-2.343-0.649s-0.736-1.118-0.736-2.058V97.95h1.265v5.774
			c0,0.514,0.13,0.896,0.391,1.145c0.26,0.25,0.665,0.374,1.215,0.374h1.98c0.521,0,0.915-0.124,1.183-0.374
			c0.268-0.249,0.401-0.631,0.401-1.145V97.95h1.265v5.687c0,0.939-0.249,1.625-0.748,2.058c-0.498,0.433-1.313,0.649-2.441,0.649
			C1070.056,106.344,1068.624,106.344,1068.624,106.344z"/>
		<path fill="#1D1D1B" d="M1077.897,106.2v-2.948l-3.554-5.302h1.508l2.475,3.894c0.044,0.074,0.111,0.11,0.203,0.11
			s0.16-0.036,0.204-0.11l2.541-3.894h1.43l-3.542,5.291v2.959H1077.897z"/>
		<path fill="#1D1D1B" d="M1091.339,102.735c0,0.542-0.071,1.036-0.214,1.479c-0.144,0.443-0.361,0.821-0.654,1.133
			c-0.294,0.313-0.67,0.554-1.128,0.727c-0.458,0.172-1.003,0.258-1.634,0.258h-1.1c-0.631,0-1.177-0.086-1.639-0.258
			c-0.463-0.173-0.84-0.414-1.134-0.727c-0.293-0.312-0.51-0.689-0.648-1.133c-0.14-0.443-0.209-0.938-0.209-1.479v-1.32
			c0-0.55,0.069-1.046,0.209-1.49c0.139-0.444,0.355-0.823,0.648-1.139c0.294-0.315,0.671-0.558,1.134-0.726
			c0.462-0.169,1.008-0.254,1.639-0.254h1.1c0.631,0,1.176,0.085,1.634,0.254c0.458,0.168,0.834,0.41,1.128,0.726
			c0.293,0.315,0.511,0.694,0.654,1.139c0.143,0.444,0.214,0.94,0.214,1.49V102.735z M1084.354,103.032
			c0,0.733,0.161,1.283,0.483,1.649c0.323,0.367,0.858,0.551,1.606,0.551h1.43c0.756,0,1.293-0.184,1.611-0.551
			c0.319-0.366,0.479-0.916,0.479-1.649v-1.925c0-0.74-0.159-1.293-0.479-1.656c-0.318-0.362-0.855-0.544-1.611-0.544h-1.43
			c-0.748,0-1.283,0.182-1.606,0.544c-0.322,0.363-0.483,0.916-0.483,1.656V103.032z"/>
	</g>
</g>
</svg>
