<?xml version="1.0" encoding="utf-8"?>
<!-- Generator: Adobe Illustrator 17.0.0, SVG Export Plug-In . SVG Version: 6.00 Build 0)  -->
<!DOCTYPE svg PUBLIC "-//W3C//DTD SVG 1.1//EN" "http://www.w3.org/Graphics/SVG/1.1/DTD/svg11.dtd">
<svg version="1.1" id="Capa_1" xmlns="http://www.w3.org/2000/svg" xmlns:xlink="http://www.w3.org/1999/xlink" x="0px" y="0px"
	 width="48px" height="48px" viewBox="0 0 48 48" enable-background="new 0 0 48 48" xml:space="preserve">
<g>
	<circle fill="#1D1D1B" cx="24" cy="23.88" r="2.601"/>
	<path fill="#1D1D1B" d="M24,17.751c1.429,0,2.588-1.159,2.588-2.588c0-0.227-0.039-0.444-0.094-0.654
		c-0.797-0.212-1.63-0.336-2.494-0.336c-0.864,0-1.697,0.124-2.494,0.336c-0.055,0.21-0.094,0.427-0.094,0.654
		C21.412,16.593,22.571,17.751,24,17.751z"/>
	<path fill="#1D1D1B" d="M19.136,15.49c-1.461,0.849-2.678,2.065-3.527,3.527c0.11,0.188,0.236,0.369,0.397,0.53
		c1.011,1.011,2.649,1.011,3.66,0c1.011-1.011,1.011-2.649,0-3.66C19.505,15.725,19.324,15.599,19.136,15.49z"/>
	<path fill="#1D1D1B" d="M17.871,23.88c0-1.429-1.159-2.588-2.588-2.588c-0.227,0-0.444,0.039-0.654,0.094
		c-0.212,0.797-0.335,1.63-0.335,2.494c0,0.864,0.124,1.697,0.335,2.494c0.21,0.055,0.427,0.094,0.654,0.094
		C16.713,26.468,17.871,25.309,17.871,23.88z"/>
	<path fill="#1D1D1B" d="M16.007,28.214c-0.161,0.161-0.287,0.342-0.397,0.53c0.849,1.461,2.066,2.678,3.527,3.527
		c0.188-0.11,0.369-0.236,0.53-0.397c1.011-1.011,1.011-2.649,0-3.66C18.656,27.203,17.017,27.203,16.007,28.214z"/>
	<path fill="#1D1D1B" d="M24,30.009c-1.429,0-2.588,1.159-2.588,2.588c0,0.227,0.039,0.444,0.094,0.654
		c0.797,0.212,1.63,0.336,2.494,0.336c0.864,0,1.697-0.124,2.494-0.336c0.055-0.21,0.094-0.427,0.094-0.654
		C26.588,31.167,25.429,30.009,24,30.009z"/>
	<path fill="#1D1D1B" d="M28.334,28.214c-1.011,1.011-1.011,2.649,0,3.66c0.161,0.161,0.342,0.287,0.53,0.397
		c1.461-0.849,2.678-2.065,3.527-3.527c-0.11-0.188-0.236-0.369-0.397-0.53C30.983,27.203,29.344,27.203,28.334,28.214z"/>
	<path fill="#1D1D1B" d="M30.129,23.88c0,1.429,1.159,2.588,2.588,2.588c0.227,0,0.444-0.039,0.654-0.094
		c0.212-0.797,0.335-1.63,0.335-2.494c0-0.864-0.124-1.697-0.335-2.494c-0.21-0.055-0.427-0.094-0.654-0.094
		C31.287,21.292,30.129,22.451,30.129,23.88z"/>
	<path fill="#1D1D1B" d="M28.864,15.49c-0.188,0.11-0.369,0.236-0.53,0.397c-1.011,1.011-1.011,2.649,0,3.66
		c1.011,1.011,2.649,1.011,3.66,0c0.161-0.161,0.287-0.342,0.397-0.53C31.542,17.555,30.325,16.339,28.864,15.49z"/>
	<path fill="#1D1D1B" d="M24,3.225C12.526,3.225,3.225,12.526,3.225,24S12.526,44.775,24,44.775
		c11.474,0,20.775-9.301,20.775-20.775S35.474,3.225,24,3.225z M23.919,35.461c-6.337,0-11.474-5.137-11.474-11.474
		s5.137-11.474,11.474-11.474s11.474,5.137,11.474,11.474S30.255,35.461,23.919,35.461z"/>
</g>
</svg>
