<?xml version="1.0" encoding="utf-8"?>
<!-- Generator: Adobe Illustrator 17.0.0, SVG Export Plug-In . SVG Version: 6.00 Build 0)  -->
<!DOCTYPE svg PUBLIC "-//W3C//DTD SVG 1.1//EN" "http://www.w3.org/Graphics/SVG/1.1/DTD/svg11.dtd">
<svg version="1.1" id="Capa_1" xmlns="http://www.w3.org/2000/svg" xmlns:xlink="http://www.w3.org/1999/xlink" x="0px" y="0px"
	 width="70px" height="70px" viewBox="15 15 70 70" enable-background="new 15 15 70 70" xml:space="preserve">
<circle fill="#FFFFFF" cx="50" cy="50" r="32.167"/>
<path fill="#D9D9D9" d="M65.54,34.772c-0.212-2.02-0.805-3.927-1.712-5.643H36.224c-0.908,1.716-1.5,3.623-1.712,5.643H23.991v0.533
	h1.107c1.274,9.028,9.454,16.711,19.361,16.711c0.934,0,1.851-0.066,2.75-0.186c-8.638-1.15-15.46-8.35-16.615-16.526h3.838
	c-0.003,0.129-0.012,0.976-0.012,1.106c0,7.891,5.863,14.397,13.467,15.442v4.197h-1.618v8.407
	c-2.201,1.292-3.683,3.677-3.683,6.414h14.88c0-2.737-1.482-5.121-3.683-6.414v-8.407h-1.618v-4.197
	c7.604-1.045,13.467-8.269,13.467-16.161c0-0.13-0.009-0.258-0.012-0.388h3.787c-1.154,8.177-7.977,15.376-16.615,16.526
	c0.899,0.119,1.816,0.186,2.75,0.186c9.907,0,18.086-7.684,19.361-16.711h1.107v-0.533L65.54,34.772L65.54,34.772z"/>
</svg>
