<?xml version="1.0" encoding="utf-8"?>
<!-- Generator: Adobe Illustrator 17.0.0, SVG Export Plug-In . SVG Version: 6.00 Build 0)  -->
<!DOCTYPE svg PUBLIC "-//W3C//DTD SVG 1.1//EN" "http://www.w3.org/Graphics/SVG/1.1/DTD/svg11.dtd">
<svg version="1.1" id="Capa_1" xmlns="http://www.w3.org/2000/svg" xmlns:xlink="http://www.w3.org/1999/xlink" x="0px" y="0px"
	 width="48px" height="48px" viewBox="0 0 48 48" enable-background="new 0 0 48 48" xml:space="preserve">
<g>
	<path fill="#171714" d="M38.747,17.445l1.414,1.409l2.121-2.113l-4.243-4.226l-2.121,2.113l1.414,1.409l-1.639,1.633
		c-3.073-3.157-7.067-5.147-12.067-5.269V9.914h6.504l-0.059-1.441c-0.07-4.229-3.606-7.617-7.205-7.617
		c-3.858,0-7.175,3.58-7.284,7.642l-0.045,1.415h6.089v2.541c-9,0.779-15.91,8.224-15.91,17.305c0,9.6,7.814,17.383,17.453,17.383
		S40.622,39.36,40.622,29.76c0-3.984-1.36-7.643-3.623-10.574L38.747,17.445z M21.626,7.914h-4.061c0.296-3,2.618-4.908,5.278-4.908
		c1.396,0,2.723,0.517,3.737,1.579c0.888,0.929,1.339,2.329,1.453,3.329h-4.408H21.626z M26.556,33.078
		c-2.047,2.047-5.378,2.047-7.425,0c-2.047-2.047-1.744-5.378,0.303-7.425c0.877-0.877,2.067-1.48,2.9-1.48v-6.259h1.5v6.293
		c1,0.182,1.862,0.659,2.649,1.447C28.531,27.7,28.603,31.031,26.556,33.078z"/>
	<circle fill="#171714" cx="22.939" cy="29.477" r="3.771"/>
</g>
</svg>
