<?xml version="1.0" encoding="utf-8"?>
<!-- Generator: Adobe Illustrator 17.0.0, SVG Export Plug-In . SVG Version: 6.00 Build 0)  -->
<!DOCTYPE svg PUBLIC "-//W3C//DTD SVG 1.1//EN" "http://www.w3.org/Graphics/SVG/1.1/DTD/svg11.dtd">
<svg version="1.1" id="Capa_1" xmlns="http://www.w3.org/2000/svg" xmlns:xlink="http://www.w3.org/1999/xlink" x="0px" y="0px"
	 width="48px" height="48px" viewBox="0 0 48 48" enable-background="new 0 0 48 48" xml:space="preserve">
<g>
	<path fill="#1D1D1B" d="M40.649,17.389l-9.307-0.091h0c-3.781,0-6.83,3.363-6.868,7.497l-0.031,3.372
		c-0.01,1.053,0.352,2.05,1.019,2.808c0.666,0.758,1.554,1.182,2.499,1.193l17.764,0.189C46.061,27.395,44.071,21.807,40.649,17.389
		z"/>
	<path fill="#1D1D1B" d="M23.782,32.677c-0.96-1.092-1.481-2.529-1.466-4.048l0.035-3.79c0.049-5.331,3.981-9.668,8.766-9.668
		l7.893,0.091c-2.26-2.59-4.972-4.734-7.976-6.089c-9.492-4.281-20.04-4.137-25.702,5.37C0.089,23.345,1.7,35,8.739,41h33.58
		c0.574-1,1.089-0.862,1.518-1.583c0.945-1.588,1.524-3.151,1.793-5.023l-18.247-0.105C26.021,34.273,24.742,33.768,23.782,32.677z
		 M13.087,38.947c-1.598,0.36-3.161-0.796-3.484-2.576c-0.323-1.78,0.714-3.522,2.312-3.882c1.598-0.36,3.161,0.795,3.484,2.576
		C15.722,36.845,14.685,38.587,13.087,38.947z"/>
</g>
</svg>
